<svg width="1873" height="729" viewBox="0 0 1873 729" fill="none" xmlns="http://www.w3.org/2000/svg">
<rect width="1873" height="729" rx="29" fill="#54E7C3"/>
<path d="M180.16 105.378V226.238H155.258V124.885H106.698V226.238H81.7959V105.378H180.16ZM196.596 182.244V180.5C196.596 173.915 197.536 167.856 199.418 162.322C201.299 156.733 204.039 151.89 207.636 147.795C211.233 143.7 215.66 140.518 220.917 138.25C226.174 135.925 232.206 134.763 239.013 134.763C245.819 134.763 251.879 135.925 257.191 138.25C262.504 140.518 266.959 143.7 270.556 147.795C274.208 151.89 276.975 156.733 278.856 162.322C280.738 167.856 281.679 173.915 281.679 180.5V182.244C281.679 188.774 280.738 194.833 278.856 200.422C276.975 205.956 274.208 210.798 270.556 214.949C266.959 219.044 262.532 222.226 257.274 224.495C252.017 226.764 245.985 227.898 239.179 227.898C232.372 227.898 226.312 226.764 221 224.495C215.743 222.226 211.288 219.044 207.636 214.949C204.039 210.798 201.299 205.956 199.418 200.422C197.536 194.833 196.596 188.774 196.596 182.244ZM220.502 180.5V182.244C220.502 186.007 220.834 189.521 221.498 192.786C222.162 196.051 223.214 198.928 224.652 201.418C226.146 203.853 228.083 205.763 230.463 207.146C232.842 208.529 235.748 209.221 239.179 209.221C242.499 209.221 245.349 208.529 247.729 207.146C250.108 205.763 252.017 203.853 253.456 201.418C254.895 198.928 255.946 196.051 256.61 192.786C257.33 189.521 257.689 186.007 257.689 182.244V180.5C257.689 176.848 257.33 173.417 256.61 170.208C255.946 166.943 254.867 164.065 253.373 161.575C251.934 159.029 250.025 157.037 247.646 155.598C245.266 154.159 242.388 153.44 239.013 153.44C235.637 153.44 232.759 154.159 230.38 155.598C228.056 157.037 226.146 159.029 224.652 161.575C223.214 164.065 222.162 166.943 221.498 170.208C220.834 173.417 220.502 176.848 220.502 180.5ZM333.476 209.221C336.409 209.221 339.009 208.668 341.278 207.561C343.547 206.399 345.318 204.794 346.591 202.747C347.919 200.644 348.611 198.181 348.666 195.359H371.161C371.106 201.667 369.418 207.284 366.098 212.209C362.777 217.079 358.323 220.925 352.733 223.748C347.144 226.514 340.891 227.898 333.974 227.898C327.001 227.898 320.914 226.736 315.712 224.412C310.565 222.087 306.277 218.878 302.846 214.783C299.415 210.632 296.841 205.818 295.126 200.339C293.41 194.806 292.553 188.884 292.553 182.576V180.168C292.553 173.805 293.41 167.883 295.126 162.405C296.841 156.871 299.415 152.056 302.846 147.961C306.277 143.811 310.565 140.574 315.712 138.25C320.858 135.925 326.89 134.763 333.808 134.763C341.168 134.763 347.615 136.174 353.148 138.997C358.738 141.819 363.109 145.859 366.264 151.116C369.473 156.318 371.106 162.488 371.161 169.626H348.666C348.611 166.638 347.974 163.927 346.757 161.492C345.595 159.057 343.879 157.12 341.61 155.681C339.397 154.187 336.658 153.44 333.393 153.44C329.906 153.44 327.056 154.187 324.843 155.681C322.629 157.12 320.914 159.112 319.696 161.658C318.479 164.148 317.621 166.998 317.123 170.208C316.68 173.362 316.459 176.682 316.459 180.168V182.576C316.459 186.062 316.68 189.41 317.123 192.62C317.566 195.829 318.396 198.679 319.613 201.169C320.886 203.66 322.629 205.624 324.843 207.063C327.056 208.502 329.934 209.221 333.476 209.221ZM430.761 136.423V226.238H406.771V136.423H430.761ZM459.647 136.423V154.934H378.3V136.423H459.647ZM488.368 163.069H514.433C522.623 163.069 529.595 164.425 535.351 167.136C541.161 169.792 545.588 173.5 548.632 178.259C551.731 183.018 553.28 188.525 553.28 194.778C553.28 199.316 552.395 203.521 550.624 207.395C548.909 211.213 546.391 214.534 543.07 217.356C539.75 220.178 535.683 222.364 530.868 223.914C526.054 225.463 520.575 226.238 514.433 226.238H473.427V136.423H497.416V207.644H514.433C518.03 207.644 520.907 207.063 523.065 205.901C525.279 204.683 526.884 203.106 527.88 201.169C528.931 199.233 529.457 197.13 529.457 194.861C529.457 192.481 528.931 190.323 527.88 188.386C526.884 186.394 525.279 184.789 523.065 183.572C520.907 182.354 518.03 181.746 514.433 181.746H488.368V163.069ZM591.63 136.423V226.238H567.724V136.423H591.63ZM699.706 188.718H671.566L671.4 173.03H694.643C697.742 173.03 700.259 172.725 702.196 172.117C704.133 171.453 705.544 170.484 706.43 169.211C707.37 167.883 707.841 166.278 707.841 164.397C707.841 162.737 707.536 161.326 706.928 160.164C706.374 158.946 705.517 157.95 704.354 157.175C703.192 156.401 701.726 155.847 699.955 155.515C698.24 155.128 696.22 154.934 693.896 154.934H680.448V226.238H656.542V136.423H693.896C699.761 136.423 705.019 136.949 709.667 138C714.315 138.997 718.272 140.518 721.537 142.566C724.857 144.613 727.375 147.214 729.091 150.369C730.862 153.468 731.747 157.148 731.747 161.409C731.747 164.176 731.111 166.777 729.838 169.211C728.62 171.646 726.794 173.805 724.359 175.686C721.924 177.568 718.909 179.117 715.312 180.334C711.77 181.497 707.675 182.216 703.026 182.493L699.706 188.718ZM699.706 226.238H665.673L673.891 207.727H699.706C702.639 207.727 705.046 207.367 706.928 206.648C708.809 205.929 710.193 204.877 711.078 203.494C712.019 202.055 712.489 200.339 712.489 198.347C712.489 196.41 712.074 194.722 711.244 193.284C710.414 191.845 709.058 190.738 707.177 189.963C705.351 189.133 702.86 188.718 699.706 188.718H677.377L677.543 173.03H702.943L708.754 179.338C715.062 179.726 720.264 180.916 724.359 182.908C728.454 184.9 731.47 187.445 733.407 190.544C735.399 193.588 736.396 196.936 736.396 200.588C736.396 204.849 735.593 208.585 733.988 211.794C732.383 215.004 730.004 217.688 726.85 219.846C723.751 221.949 719.932 223.554 715.395 224.661C710.857 225.712 705.627 226.238 699.706 226.238ZM830.526 209.221C833.459 209.221 836.06 208.668 838.329 207.561C840.598 206.399 842.369 204.794 843.642 202.747C844.97 200.644 845.661 198.181 845.717 195.359H868.212C868.157 201.667 866.469 207.284 863.148 212.209C859.828 217.079 855.373 220.925 849.784 223.748C844.195 226.514 837.942 227.898 831.024 227.898C824.052 227.898 817.965 226.736 812.763 224.412C807.616 222.087 803.327 218.878 799.896 214.783C796.465 210.632 793.892 205.818 792.177 200.339C790.461 194.806 789.604 188.884 789.604 182.576V180.168C789.604 173.805 790.461 167.883 792.177 162.405C793.892 156.871 796.465 152.056 799.896 147.961C803.327 143.811 807.616 140.574 812.763 138.25C817.909 135.925 823.941 134.763 830.858 134.763C838.218 134.763 844.665 136.174 850.199 138.997C855.788 141.819 860.16 145.859 863.314 151.116C866.524 156.318 868.157 162.488 868.212 169.626H845.717C845.661 166.638 845.025 163.927 843.808 161.492C842.646 159.057 840.93 157.12 838.661 155.681C836.448 154.187 833.708 153.44 830.443 153.44C826.957 153.44 824.107 154.187 821.894 155.681C819.68 157.12 817.965 159.112 816.747 161.658C815.53 164.148 814.672 166.998 814.174 170.208C813.731 173.362 813.51 176.682 813.51 180.168V182.576C813.51 186.062 813.731 189.41 814.174 192.62C814.617 195.829 815.447 198.679 816.664 201.169C817.937 203.66 819.68 205.624 821.894 207.063C824.107 208.502 826.985 209.221 830.526 209.221ZM878.256 182.244V180.5C878.256 173.915 879.197 167.856 881.078 162.322C882.96 156.733 885.699 151.89 889.296 147.795C892.893 143.7 897.32 140.518 902.577 138.25C907.834 135.925 913.866 134.763 920.673 134.763C927.479 134.763 933.539 135.925 938.852 138.25C944.164 140.518 948.619 143.7 952.216 147.795C955.868 151.89 958.635 156.733 960.517 162.322C962.398 167.856 963.339 173.915 963.339 180.5V182.244C963.339 188.774 962.398 194.833 960.517 200.422C958.635 205.956 955.868 210.798 952.216 214.949C948.619 219.044 944.192 222.226 938.935 224.495C933.677 226.764 927.646 227.898 920.839 227.898C914.032 227.898 907.973 226.764 902.66 224.495C897.403 222.226 892.948 219.044 889.296 214.949C885.699 210.798 882.96 205.956 881.078 200.422C879.197 194.833 878.256 188.774 878.256 182.244ZM902.162 180.5V182.244C902.162 186.007 902.494 189.521 903.158 192.786C903.822 196.051 904.874 198.928 906.312 201.418C907.807 203.853 909.743 205.763 912.123 207.146C914.503 208.529 917.408 209.221 920.839 209.221C924.159 209.221 927.009 208.529 929.389 207.146C931.768 205.763 933.677 203.853 935.116 201.418C936.555 198.928 937.606 196.051 938.271 192.786C938.99 189.521 939.35 186.007 939.35 182.244V180.5C939.35 176.848 938.99 173.417 938.271 170.208C937.606 166.943 936.527 164.065 935.033 161.575C933.594 159.029 931.685 157.037 929.306 155.598C926.926 154.159 924.049 153.44 920.673 153.44C917.297 153.44 914.42 154.159 912.04 155.598C909.716 157.037 907.807 159.029 906.312 161.575C904.874 164.065 903.822 166.943 903.158 170.208C902.494 173.417 902.162 176.848 902.162 180.5ZM977.948 226.238V136.423H1001.85V207.561H1031.9V136.423H1055.89V226.238H977.948ZM1069.34 207.644L1067.76 252.883H1045.52V226.238H1035.47V207.644H1069.34ZM1105.28 192.869L1135.41 136.423H1159.32V226.238H1135.41V169.709L1105.28 226.238H1081.38V136.423H1105.28V192.869ZM1226.22 205.984V165.974C1226.22 163.097 1225.75 160.634 1224.81 158.586C1223.87 156.484 1222.41 154.851 1220.41 153.689C1218.48 152.527 1215.96 151.946 1212.86 151.946C1210.2 151.946 1207.91 152.416 1205.97 153.357C1204.03 154.242 1202.54 155.543 1201.49 157.258C1200.44 158.918 1199.91 160.883 1199.91 163.152H1176C1176 159.333 1176.89 155.709 1178.66 152.278C1180.43 148.847 1183.01 145.831 1186.38 143.23C1189.76 140.574 1193.77 138.499 1198.42 137.004C1203.12 135.51 1208.38 134.763 1214.19 134.763C1221.16 134.763 1227.36 135.925 1232.78 138.25C1238.21 140.574 1242.47 144.06 1245.57 148.708C1248.72 153.357 1250.3 159.167 1250.3 166.14V204.573C1250.3 209.498 1250.6 213.538 1251.21 216.692C1251.82 219.791 1252.7 222.502 1253.87 224.827V226.238H1229.71C1228.55 223.803 1227.66 220.759 1227.05 217.107C1226.5 213.399 1226.22 209.692 1226.22 205.984ZM1229.38 171.536L1229.54 185.066H1216.18C1213.03 185.066 1210.29 185.426 1207.96 186.145C1205.64 186.864 1203.73 187.888 1202.24 189.216C1200.74 190.489 1199.63 191.983 1198.92 193.699C1198.25 195.414 1197.92 197.296 1197.92 199.343C1197.92 201.391 1198.39 203.245 1199.33 204.905C1200.27 206.51 1201.63 207.782 1203.4 208.723C1205.17 209.609 1207.24 210.051 1209.62 210.051C1213.22 210.051 1216.35 209.332 1219 207.893C1221.66 206.454 1223.71 204.683 1225.15 202.581C1226.64 200.478 1227.41 198.486 1227.47 196.604L1233.78 206.731C1232.89 209 1231.68 211.352 1230.13 213.787C1228.63 216.222 1226.72 218.518 1224.4 220.676C1222.07 222.779 1219.28 224.522 1216.01 225.906C1212.75 227.234 1208.88 227.898 1204.39 227.898C1198.69 227.898 1193.52 226.764 1188.87 224.495C1184.28 222.17 1180.63 218.988 1177.91 214.949C1175.26 210.854 1173.93 206.205 1173.93 201.003C1173.93 196.3 1174.82 192.122 1176.59 188.469C1178.36 184.817 1180.96 181.746 1184.39 179.255C1187.88 176.71 1192.22 174.801 1197.42 173.528C1202.62 172.2 1208.65 171.536 1215.52 171.536H1229.38ZM1329.15 136.423V155.183H1284.99V136.423H1329.15ZM1346.67 136.423V226.238H1322.76V136.423H1346.67ZM1279.02 136.423H1302.51L1300.1 181.746C1299.77 188.22 1299.08 193.92 1298.03 198.845C1296.97 203.77 1295.56 207.976 1293.79 211.462C1292.08 214.949 1290 217.799 1287.57 220.012C1285.19 222.17 1282.39 223.748 1279.18 224.744C1276.03 225.74 1272.54 226.238 1268.72 226.238H1261.42L1261.17 207.395L1264.24 207.063C1266.01 206.897 1267.56 206.399 1268.89 205.569C1270.27 204.683 1271.44 203.438 1272.38 201.833C1273.37 200.173 1274.2 198.098 1274.87 195.608C1275.53 193.062 1276.06 190.074 1276.44 186.643C1276.89 183.212 1277.19 179.255 1277.36 174.773L1279.02 136.423ZM1381.7 163.069H1407.76C1415.95 163.069 1422.93 164.425 1428.68 167.136C1434.49 169.792 1438.92 173.5 1441.96 178.259C1445.06 183.018 1446.61 188.525 1446.61 194.778C1446.61 199.316 1445.72 203.521 1443.95 207.395C1442.24 211.213 1439.72 214.534 1436.4 217.356C1433.08 220.178 1429.01 222.364 1424.2 223.914C1419.38 225.463 1413.91 226.238 1407.76 226.238H1366.76V136.423H1390.75V207.644H1407.76C1411.36 207.644 1414.24 207.063 1416.4 205.901C1418.61 204.683 1420.21 203.106 1421.21 201.169C1422.26 199.233 1422.79 197.13 1422.79 194.861C1422.79 192.481 1422.26 190.323 1421.21 188.386C1420.21 186.394 1418.61 184.789 1416.4 183.572C1414.24 182.354 1411.36 181.746 1407.76 181.746H1381.7V163.069ZM1521.65 172.698V191.292H1476V172.698H1521.65ZM1483.96 136.423V226.238H1460.06V136.423H1483.96ZM1537.84 136.423V226.238H1513.85V136.423H1537.84ZM1572.95 163.069H1599.01C1607.2 163.069 1614.18 164.425 1619.93 167.136C1625.74 169.792 1630.17 173.5 1633.21 178.259C1636.31 183.018 1637.86 188.525 1637.86 194.778C1637.86 199.316 1636.97 203.521 1635.2 207.395C1633.49 211.213 1630.97 214.534 1627.65 217.356C1624.33 220.178 1620.26 222.364 1615.45 223.914C1610.63 225.463 1605.16 226.238 1599.01 226.238H1558.01V136.423H1582V207.644H1599.01C1602.61 207.644 1605.49 207.063 1607.65 205.901C1609.86 204.683 1611.46 203.106 1612.46 201.169C1613.51 199.233 1614.04 197.13 1614.04 194.861C1614.04 192.481 1613.51 190.323 1612.46 188.386C1611.46 186.394 1609.86 184.789 1607.65 183.572C1605.49 182.354 1602.61 181.746 1599.01 181.746H1572.95V163.069ZM1676.21 136.423V226.238H1652.3V136.423H1676.21ZM1716.47 136.423L1731.33 163.733L1746.6 136.423H1772.08L1746.68 180.334L1773.25 226.238H1747.68L1731.49 197.351L1715.31 226.238H1689.74L1716.3 180.334L1690.9 136.423H1716.47ZM117.323 354.221C120.256 354.221 122.857 353.668 125.126 352.561C127.395 351.399 129.166 349.794 130.438 347.747C131.767 345.644 132.458 343.181 132.514 340.359H155.009C154.953 346.667 153.266 352.284 149.945 357.209C146.625 362.079 142.17 365.925 136.581 368.748C130.992 371.514 124.739 372.898 117.821 372.898C110.849 372.898 104.761 371.736 99.5596 369.412C94.4131 367.087 90.1243 363.878 86.6934 359.783C83.2624 355.632 80.6891 350.818 78.9736 345.339C77.2581 339.806 76.4004 333.884 76.4004 327.576V325.168C76.4004 318.805 77.2581 312.883 78.9736 307.405C80.6891 301.871 83.2624 297.056 86.6934 292.961C90.1243 288.811 94.4131 285.574 99.5596 283.25C104.706 280.925 110.738 279.763 117.655 279.763C125.015 279.763 131.462 281.174 136.996 283.997C142.585 286.819 146.957 290.859 150.111 296.116C153.321 301.318 154.953 307.488 155.009 314.626H132.514C132.458 311.638 131.822 308.927 130.604 306.492C129.442 304.057 127.727 302.12 125.458 300.681C123.244 299.187 120.505 298.44 117.24 298.44C113.754 298.44 110.904 299.187 108.69 300.681C106.477 302.12 104.761 304.112 103.544 306.658C102.326 309.148 101.469 311.998 100.971 315.208C100.528 318.362 100.307 321.682 100.307 325.168V327.576C100.307 331.062 100.528 334.41 100.971 337.62C101.413 340.829 102.243 343.679 103.461 346.169C104.734 348.66 106.477 350.624 108.69 352.063C110.904 353.502 113.782 354.221 117.323 354.221ZM210.209 372.898C203.236 372.898 196.983 371.791 191.449 369.578C185.915 367.309 181.212 364.182 177.338 360.198C173.52 356.213 170.587 351.593 168.539 346.335C166.492 341.023 165.468 335.378 165.468 329.402V326.082C165.468 319.275 166.436 313.049 168.373 307.405C170.31 301.76 173.077 296.863 176.674 292.712C180.326 288.562 184.753 285.38 189.955 283.167C195.157 280.898 201.023 279.763 207.553 279.763C213.917 279.763 219.561 280.815 224.486 282.917C229.411 285.02 233.534 288.009 236.854 291.882C240.23 295.756 242.776 300.404 244.491 305.828C246.207 311.195 247.064 317.172 247.064 323.757V333.718H175.678V317.781H223.573V315.955C223.573 312.634 222.965 309.674 221.747 307.073C220.585 304.417 218.814 302.314 216.435 300.764C214.055 299.215 211.011 298.44 207.304 298.44C204.149 298.44 201.438 299.132 199.169 300.515C196.9 301.899 195.046 303.835 193.607 306.326C192.224 308.816 191.173 311.749 190.453 315.125C189.789 318.445 189.457 322.097 189.457 326.082V329.402C189.457 332.999 189.955 336.319 190.951 339.363C192.003 342.406 193.469 345.035 195.351 347.249C197.287 349.462 199.612 351.178 202.323 352.395C205.09 353.612 208.217 354.221 211.703 354.221C216.02 354.221 220.032 353.391 223.739 351.731C227.502 350.015 230.74 347.442 233.451 344.011L245.072 356.628C243.191 359.34 240.618 361.941 237.353 364.431C234.143 366.921 230.269 368.969 225.731 370.574C221.194 372.123 216.02 372.898 210.209 372.898ZM305.419 281.423V371.238H281.43V281.423H305.419ZM334.306 281.423V299.934H252.958V281.423H334.306ZM365.849 326.414H390.087L365.102 371.238H340.946L365.849 326.414ZM381.952 281.423H421.381V371.238H397.475V299.934H381.952C378.687 299.934 375.976 300.543 373.817 301.76C371.659 302.922 370.054 304.444 369.003 306.326C368.007 308.152 367.509 310.033 367.509 311.97C367.509 313.852 368.007 315.678 369.003 317.449C369.999 319.22 371.549 320.686 373.651 321.848C375.754 323.01 378.383 323.591 381.537 323.591H406.356V339.861H381.537C375.616 339.861 370.303 339.141 365.6 337.703C360.951 336.264 356.967 334.272 353.646 331.726C350.382 329.125 347.864 326.109 346.093 322.678C344.377 319.192 343.52 315.374 343.52 311.223C343.52 306.907 344.405 302.95 346.176 299.353C347.947 295.756 350.492 292.602 353.812 289.89C357.133 287.179 361.145 285.103 365.849 283.665C370.608 282.17 375.976 281.423 381.952 281.423ZM460.893 281.423L475.751 308.733L491.024 281.423H516.508L491.107 325.334L517.67 371.238H492.104L475.917 342.351L459.73 371.238H434.164L460.727 325.334L435.326 281.423H460.893Z" fill="black"/>
<path d="M1341.1 471.786L1296.23 551.379L1364.17 494.881C1364.17 494.881 1605.52 615.396 1711.99 471.786C1818.46 328.175 1446.09 228.817 1341.1 365.003C1326.88 383.404 1300.27 427.607 1341.1 471.786Z" fill="white"/>
<path d="M1372.02 394.107C1383.46 380.598 1398.44 414.148 1405.14 399.844C1411.84 385.515 1431.97 376.873 1452.07 397.559C1472.17 418.245 1466.67 392.592 1478.9 385.565C1491.13 378.562 1502.16 396.591 1505.73 405.183C1509.27 413.75 1508.09 399.844 1521.9 392.468C1535.71 385.093 1534.92 398.205 1547.15 402.7C1559.38 407.194 1560.17 401.061 1569.62 391.649C1579.08 382.237 1586.97 393.288 1607.08 400.663C1627.18 408.039 1626.01 394.927 1642.18 386.757C1658.36 378.562 1665.06 406.524 1676.5 407.89" stroke="black" stroke-width="6" stroke-miterlimit="10"/>
<path d="M1518.72 451.522C1527.41 434.337 1547.51 468.706 1558.76 451.522C1570 434.337 1571.18 439.254 1588.34 451.522C1605.49 463.789 1591.88 451.174 1611.41 443.377C1630.93 435.579 1633.3 454.427 1642.16 456.662C1651.04 458.897 1652.21 445.04 1661.09 443.377C1669.97 441.713 1676.48 448.641 1676.48 448.641" stroke="black" stroke-width="6" stroke-miterlimit="10"/>
<g clip-path="url(#clip0_3524_1654)">
<path d="M1225.59 559.861L1244.92 593.651L1210.82 574.08C1210.82 574.08 1056.24 648.282 988.046 559.861C919.853 471.439 1158.35 410.264 1225.59 494.114C1234.7 505.444 1251.74 532.66 1225.59 559.861Z" fill="white"/>
<path d="M1198.75 526.723C1192.11 511.851 1183.42 548.786 1179.53 533.039C1175.64 517.264 1163.97 507.75 1152.3 530.524C1140.64 553.297 1143.83 525.056 1136.74 517.319C1129.64 509.609 1123.24 529.457 1121.17 538.917C1119.12 548.349 1119.8 533.039 1111.79 524.919C1103.77 516.799 1104.23 531.234 1097.14 536.183C1090.04 541.131 1089.58 534.378 1084.1 524.017C1078.61 513.655 1074.03 525.821 1062.37 533.941C1050.7 542.061 1051.39 527.626 1042 518.631C1032.61 509.609 1028.72 540.393 1022.09 541.897" stroke="black" stroke-width="5" stroke-miterlimit="10"/>
</g>
<path d="M86.0227 538.045V527.875H87.8977C88.5417 527.288 89.1477 526.459 89.7159 525.389C90.2936 524.31 90.7812 522.87 91.179 521.071C91.5862 519.262 91.8561 516.966 91.9886 514.182L92.6136 501.909H109.886V527.875H113.239V537.989H109.886V531H89.375V538.045H86.0227ZM92.1023 527.875H106.534V505.034H95.7955L95.3409 514.182C95.2273 516.303 95.0284 518.225 94.7443 519.949C94.4602 521.663 94.0956 523.183 93.6506 524.509C93.2055 525.825 92.6894 526.947 92.1023 527.875ZM127.255 531.455C125.153 531.455 123.339 530.991 121.815 530.062C120.299 529.125 119.13 527.818 118.306 526.142C117.492 524.456 117.085 522.496 117.085 520.261C117.085 518.027 117.492 516.057 118.306 514.352C119.13 512.638 120.276 511.303 121.744 510.347C123.221 509.381 124.944 508.898 126.914 508.898C128.05 508.898 129.173 509.087 130.281 509.466C131.388 509.845 132.397 510.46 133.306 511.312C134.215 512.155 134.94 513.273 135.479 514.665C136.019 516.057 136.289 517.771 136.289 519.807V521.227H119.471V518.33H132.88C132.88 517.098 132.634 516 132.141 515.034C131.658 514.068 130.967 513.306 130.067 512.747C129.177 512.188 128.126 511.909 126.914 511.909C125.579 511.909 124.424 512.241 123.448 512.903C122.482 513.557 121.739 514.409 121.218 515.46C120.697 516.511 120.437 517.638 120.437 518.841V520.773C120.437 522.42 120.721 523.817 121.289 524.963C121.867 526.099 122.667 526.966 123.69 527.562C124.712 528.15 125.901 528.443 127.255 528.443C128.136 528.443 128.931 528.32 129.641 528.074C130.361 527.818 130.981 527.439 131.502 526.938C132.023 526.426 132.425 525.792 132.71 525.034L135.948 525.943C135.607 527.042 135.034 528.008 134.229 528.841C133.424 529.665 132.43 530.309 131.246 530.773C130.063 531.227 128.732 531.455 127.255 531.455ZM139.457 531V527.875H140.252C140.906 527.875 141.45 527.747 141.886 527.491C142.321 527.226 142.672 526.767 142.937 526.114C143.211 525.451 143.42 524.532 143.562 523.358C143.713 522.174 143.822 520.669 143.888 518.841L144.286 509.182H158.832V531H155.479V512.307H147.468L147.127 520.091C147.051 521.881 146.89 523.457 146.644 524.821C146.407 526.175 146.043 527.312 145.55 528.23C145.067 529.149 144.424 529.84 143.619 530.304C142.814 530.768 141.805 531 140.593 531H139.457ZM168.335 526.057L178.846 509.182H182.71V531H179.357V514.125L168.903 531H164.982V509.182H168.335V526.057ZM197.713 531.455C195.668 531.455 193.906 530.972 192.429 530.006C190.952 529.04 189.815 527.709 189.02 526.014C188.224 524.319 187.827 522.383 187.827 520.205C187.827 517.989 188.234 516.033 189.048 514.338C189.872 512.634 191.018 511.303 192.486 510.347C193.963 509.381 195.687 508.898 197.656 508.898C199.19 508.898 200.573 509.182 201.804 509.75C203.035 510.318 204.044 511.114 204.83 512.136C205.616 513.159 206.103 514.352 206.293 515.716H202.94C202.685 514.722 202.116 513.841 201.236 513.074C200.365 512.297 199.19 511.909 197.713 511.909C196.406 511.909 195.26 512.25 194.276 512.932C193.3 513.604 192.538 514.556 191.989 515.787C191.449 517.009 191.179 518.443 191.179 520.091C191.179 521.777 191.444 523.244 191.974 524.494C192.514 525.744 193.272 526.715 194.247 527.406C195.232 528.098 196.387 528.443 197.713 528.443C198.584 528.443 199.375 528.292 200.085 527.989C200.795 527.686 201.397 527.25 201.889 526.682C202.382 526.114 202.732 525.432 202.94 524.636H206.293C206.103 525.924 205.634 527.084 204.886 528.116C204.148 529.139 203.168 529.954 201.946 530.56C200.734 531.156 199.323 531.455 197.713 531.455ZM214.091 517.08H220.341C222.898 517.08 224.853 517.728 226.207 519.026C227.562 520.323 228.239 521.966 228.239 523.955C228.239 525.261 227.936 526.45 227.33 527.52C226.723 528.58 225.833 529.428 224.659 530.062C223.485 530.688 222.045 531 220.341 531H211.193V509.182H214.545V527.875H220.341C221.667 527.875 222.756 527.525 223.608 526.824C224.46 526.123 224.886 525.223 224.886 524.125C224.886 522.97 224.46 522.027 223.608 521.298C222.756 520.569 221.667 520.205 220.341 520.205H214.091V517.08ZM253.455 531.455C251.486 531.455 249.757 530.986 248.271 530.048C246.793 529.111 245.638 527.799 244.805 526.114C243.981 524.428 243.569 522.458 243.569 520.205C243.569 517.932 243.981 515.948 244.805 514.253C245.638 512.558 246.793 511.241 248.271 510.304C249.757 509.366 251.486 508.898 253.455 508.898C255.425 508.898 257.148 509.366 258.626 510.304C260.112 511.241 261.268 512.558 262.092 514.253C262.925 515.948 263.342 517.932 263.342 520.205C263.342 522.458 262.925 524.428 262.092 526.114C261.268 527.799 260.112 529.111 258.626 530.048C257.148 530.986 255.425 531.455 253.455 531.455ZM253.455 528.443C254.951 528.443 256.183 528.06 257.148 527.293C258.114 526.526 258.829 525.517 259.293 524.267C259.757 523.017 259.989 521.663 259.989 520.205C259.989 518.746 259.757 517.387 259.293 516.128C258.829 514.868 258.114 513.85 257.148 513.074C256.183 512.297 254.951 511.909 253.455 511.909C251.959 511.909 250.728 512.297 249.762 513.074C248.796 513.85 248.081 514.868 247.617 516.128C247.153 517.387 246.921 518.746 246.921 520.205C246.921 521.663 247.153 523.017 247.617 524.267C248.081 525.517 248.796 526.526 249.762 527.293C250.728 528.06 251.959 528.443 253.455 528.443ZM288.572 531.455C286.527 531.455 284.766 530.972 283.288 530.006C281.811 529.04 280.675 527.709 279.879 526.014C279.084 524.319 278.686 522.383 278.686 520.205C278.686 517.989 279.093 516.033 279.908 514.338C280.732 512.634 281.877 511.303 283.345 510.347C284.822 509.381 286.546 508.898 288.516 508.898C290.05 508.898 291.432 509.182 292.663 509.75C293.894 510.318 294.903 511.114 295.689 512.136C296.475 513.159 296.963 514.352 297.152 515.716H293.8C293.544 514.722 292.976 513.841 292.095 513.074C291.224 512.297 290.05 511.909 288.572 511.909C287.266 511.909 286.12 512.25 285.135 512.932C284.16 513.604 283.397 514.556 282.848 515.787C282.308 517.009 282.038 518.443 282.038 520.091C282.038 521.777 282.304 523.244 282.834 524.494C283.374 525.744 284.131 526.715 285.107 527.406C286.091 528.098 287.247 528.443 288.572 528.443C289.444 528.443 290.234 528.292 290.945 527.989C291.655 527.686 292.256 527.25 292.749 526.682C293.241 526.114 293.591 525.432 293.8 524.636H297.152C296.963 525.924 296.494 527.084 295.746 528.116C295.007 529.139 294.027 529.954 292.805 530.56C291.593 531.156 290.182 531.455 288.572 531.455ZM302.053 531V509.182H310.973C313.321 509.182 315.187 509.712 316.57 510.773C317.952 511.833 318.643 513.235 318.643 514.977C318.643 516.303 318.25 517.33 317.464 518.06C316.679 518.779 315.67 519.267 314.439 519.523C315.244 519.636 316.025 519.92 316.783 520.375C317.55 520.83 318.184 521.455 318.686 522.25C319.188 523.036 319.439 524.002 319.439 525.148C319.439 526.265 319.155 527.264 318.587 528.145C318.018 529.026 317.204 529.722 316.143 530.233C315.083 530.744 313.814 531 312.337 531H302.053ZM305.234 527.932H312.337C313.492 527.932 314.396 527.657 315.05 527.108C315.703 526.559 316.03 525.811 316.03 524.864C316.03 523.737 315.703 522.851 315.05 522.207C314.396 521.554 313.492 521.227 312.337 521.227H305.234V527.932ZM305.234 518.33H310.973C311.873 518.33 312.644 518.206 313.288 517.96C313.932 517.705 314.425 517.345 314.766 516.881C315.116 516.407 315.291 515.848 315.291 515.205C315.291 514.286 314.908 513.566 314.141 513.045C313.374 512.515 312.318 512.25 310.973 512.25H305.234V518.33ZM333.377 531.455C331.407 531.455 329.679 530.986 328.192 530.048C326.715 529.111 325.56 527.799 324.727 526.114C323.903 524.428 323.491 522.458 323.491 520.205C323.491 517.932 323.903 515.948 324.727 514.253C325.56 512.558 326.715 511.241 328.192 510.304C329.679 509.366 331.407 508.898 333.377 508.898C335.347 508.898 337.07 509.366 338.548 510.304C340.034 511.241 341.19 512.558 342.013 514.253C342.847 515.948 343.263 517.932 343.263 520.205C343.263 522.458 342.847 524.428 342.013 526.114C341.19 527.799 340.034 529.111 338.548 530.048C337.07 530.986 335.347 531.455 333.377 531.455ZM333.377 528.443C334.873 528.443 336.104 528.06 337.07 527.293C338.036 526.526 338.751 525.517 339.215 524.267C339.679 523.017 339.911 521.663 339.911 520.205C339.911 518.746 339.679 517.387 339.215 516.128C338.751 514.868 338.036 513.85 337.07 513.074C336.104 512.297 334.873 511.909 333.377 511.909C331.881 511.909 330.65 512.297 329.684 513.074C328.718 513.85 328.003 514.868 327.539 516.128C327.075 517.387 326.843 518.746 326.843 520.205C326.843 521.663 327.075 523.017 327.539 524.267C328.003 525.517 328.718 526.526 329.684 527.293C330.65 528.06 331.881 528.443 333.377 528.443ZM357.528 531.455C355.426 531.455 353.613 530.991 352.088 530.062C350.573 529.125 349.403 527.818 348.58 526.142C347.765 524.456 347.358 522.496 347.358 520.261C347.358 518.027 347.765 516.057 348.58 514.352C349.403 512.638 350.549 511.303 352.017 510.347C353.494 509.381 355.218 508.898 357.188 508.898C358.324 508.898 359.446 509.087 360.554 509.466C361.662 509.845 362.67 510.46 363.58 511.312C364.489 512.155 365.213 513.273 365.753 514.665C366.293 516.057 366.562 517.771 366.562 519.807V521.227H349.744V518.33H363.153C363.153 517.098 362.907 516 362.415 515.034C361.932 514.068 361.241 513.306 360.341 512.747C359.451 512.188 358.4 511.909 357.188 511.909C355.852 511.909 354.697 512.241 353.722 512.903C352.756 513.557 352.012 514.409 351.491 515.46C350.971 516.511 350.71 517.638 350.71 518.841V520.773C350.71 522.42 350.994 523.817 351.562 524.963C352.14 526.099 352.94 526.966 353.963 527.562C354.986 528.15 356.174 528.443 357.528 528.443C358.409 528.443 359.205 528.32 359.915 528.074C360.634 527.818 361.255 527.439 361.776 526.938C362.296 526.426 362.699 525.792 362.983 525.034L366.222 525.943C365.881 527.042 365.308 528.008 364.503 528.841C363.698 529.665 362.704 530.309 361.52 530.773C360.336 531.227 359.006 531.455 357.528 531.455ZM375.014 526.057L385.526 509.182H389.389V531H386.037V514.125L375.582 531H371.662V509.182H375.014V526.057ZM383.31 501.909H386.435C386.435 503.443 385.904 504.698 384.844 505.673C383.783 506.649 382.344 507.136 380.526 507.136C378.736 507.136 377.311 506.649 376.25 505.673C375.199 504.698 374.673 503.443 374.673 501.909H377.798C377.798 502.648 378.002 503.296 378.409 503.855C378.826 504.414 379.531 504.693 380.526 504.693C381.52 504.693 382.23 504.414 382.656 503.855C383.092 503.296 383.31 502.648 383.31 501.909ZM406.779 539.182V509.182H410.018V512.648H410.415C410.662 512.269 411.003 511.786 411.438 511.199C411.883 510.602 412.518 510.072 413.342 509.608C414.175 509.134 415.302 508.898 416.722 508.898C418.559 508.898 420.179 509.357 421.58 510.276C422.982 511.194 424.076 512.496 424.862 514.182C425.647 515.867 426.04 517.856 426.04 520.148C426.04 522.458 425.647 524.461 424.862 526.156C424.076 527.842 422.987 529.149 421.594 530.077C420.202 530.995 418.597 531.455 416.779 531.455C415.378 531.455 414.255 531.223 413.413 530.759C412.57 530.285 411.921 529.75 411.467 529.153C411.012 528.547 410.662 528.045 410.415 527.648H410.131V539.182H406.779ZM410.075 520.091C410.075 521.739 410.316 523.192 410.799 524.452C411.282 525.702 411.987 526.682 412.915 527.392C413.844 528.093 414.98 528.443 416.325 528.443C417.726 528.443 418.896 528.074 419.833 527.335C420.78 526.587 421.49 525.583 421.964 524.324C422.447 523.055 422.688 521.644 422.688 520.091C422.688 518.557 422.451 517.174 421.978 515.943C421.514 514.703 420.808 513.723 419.862 513.003C418.924 512.274 417.745 511.909 416.325 511.909C414.961 511.909 413.815 512.255 412.887 512.946C411.959 513.628 411.258 514.584 410.785 515.815C410.311 517.037 410.075 518.462 410.075 520.091ZM437.575 531.511C436.192 531.511 434.937 531.251 433.81 530.73C432.683 530.2 431.789 529.438 431.126 528.443C430.463 527.439 430.131 526.227 430.131 524.807C430.131 523.557 430.378 522.544 430.87 521.767C431.362 520.981 432.021 520.366 432.844 519.92C433.668 519.475 434.577 519.144 435.572 518.926C436.576 518.699 437.584 518.519 438.597 518.386C439.923 518.216 440.998 518.088 441.822 518.003C442.655 517.908 443.261 517.752 443.64 517.534C444.028 517.316 444.222 516.937 444.222 516.398V516.284C444.222 514.883 443.839 513.794 443.072 513.017C442.314 512.241 441.164 511.852 439.62 511.852C438.02 511.852 436.765 512.203 435.856 512.903C434.947 513.604 434.308 514.352 433.938 515.148L430.756 514.011C431.325 512.686 432.082 511.653 433.029 510.915C433.986 510.167 435.027 509.646 436.154 509.352C437.29 509.049 438.408 508.898 439.506 508.898C440.207 508.898 441.012 508.983 441.921 509.153C442.84 509.314 443.725 509.651 444.577 510.162C445.439 510.673 446.154 511.445 446.722 512.477C447.29 513.509 447.575 514.892 447.575 516.625V531H444.222V528.045H444.052C443.825 528.519 443.446 529.026 442.915 529.565C442.385 530.105 441.68 530.564 440.799 530.943C439.918 531.322 438.844 531.511 437.575 531.511ZM438.086 528.5C439.412 528.5 440.529 528.24 441.438 527.719C442.357 527.198 443.048 526.526 443.512 525.702C443.986 524.878 444.222 524.011 444.222 523.102V520.034C444.08 520.205 443.768 520.361 443.285 520.503C442.811 520.635 442.262 520.754 441.637 520.858C441.022 520.953 440.42 521.038 439.833 521.114C439.255 521.18 438.787 521.237 438.427 521.284C437.556 521.398 436.741 521.582 435.984 521.838C435.236 522.084 434.629 522.458 434.165 522.96C433.711 523.453 433.484 524.125 433.484 524.977C433.484 526.142 433.915 527.023 434.776 527.619C435.647 528.206 436.751 528.5 438.086 528.5ZM469.886 501L471.591 503.045C470.928 503.689 470.161 504.139 469.29 504.395C468.419 504.651 467.434 504.807 466.335 504.864C465.237 504.92 464.015 504.977 462.67 505.034C461.155 505.091 459.901 505.46 458.906 506.142C457.912 506.824 457.145 507.809 456.605 509.097C456.065 510.384 455.72 511.966 455.568 513.841H455.852C456.591 512.477 457.614 511.473 458.92 510.83C460.227 510.186 461.629 509.864 463.125 509.864C464.83 509.864 466.364 510.261 467.727 511.057C469.091 511.852 470.17 513.031 470.966 514.594C471.761 516.156 472.159 518.083 472.159 520.375C472.159 522.657 471.752 524.627 470.938 526.284C470.133 527.941 469.001 529.22 467.543 530.119C466.094 531.009 464.394 531.455 462.443 531.455C460.492 531.455 458.783 530.995 457.315 530.077C455.848 529.149 454.706 527.776 453.892 525.957C453.078 524.13 452.67 521.871 452.67 519.182V516.852C452.67 511.994 453.494 508.311 455.142 505.801C456.799 503.292 459.29 501.994 462.614 501.909C463.788 501.871 464.834 501.862 465.753 501.881C466.671 501.9 467.472 501.857 468.153 501.753C468.835 501.649 469.413 501.398 469.886 501ZM462.443 528.443C463.759 528.443 464.891 528.112 465.838 527.449C466.795 526.786 467.528 525.853 468.04 524.651C468.551 523.438 468.807 522.013 468.807 520.375C468.807 518.784 468.546 517.43 468.026 516.312C467.514 515.195 466.78 514.343 465.824 513.756C464.867 513.169 463.722 512.875 462.386 512.875C461.411 512.875 460.535 513.041 459.759 513.372C458.982 513.704 458.319 514.191 457.77 514.835C457.221 515.479 456.795 516.265 456.491 517.193C456.198 518.121 456.042 519.182 456.023 520.375C456.023 522.818 456.596 524.774 457.741 526.241C458.887 527.709 460.455 528.443 462.443 528.443ZM486.151 531.455C484.181 531.455 482.453 530.986 480.966 530.048C479.489 529.111 478.333 527.799 477.5 526.114C476.676 524.428 476.264 522.458 476.264 520.205C476.264 517.932 476.676 515.948 477.5 514.253C478.333 512.558 479.489 511.241 480.966 510.304C482.453 509.366 484.181 508.898 486.151 508.898C488.12 508.898 489.844 509.366 491.321 510.304C492.808 511.241 493.963 512.558 494.787 514.253C495.62 515.948 496.037 517.932 496.037 520.205C496.037 522.458 495.62 524.428 494.787 526.114C493.963 527.799 492.808 529.111 491.321 530.048C489.844 530.986 488.12 531.455 486.151 531.455ZM486.151 528.443C487.647 528.443 488.878 528.06 489.844 527.293C490.81 526.526 491.525 525.517 491.989 524.267C492.453 523.017 492.685 521.663 492.685 520.205C492.685 518.746 492.453 517.387 491.989 516.128C491.525 514.868 490.81 513.85 489.844 513.074C488.878 512.297 487.647 511.909 486.151 511.909C484.654 511.909 483.423 512.297 482.457 513.074C481.491 513.85 480.777 514.868 480.312 516.128C479.848 517.387 479.616 518.746 479.616 520.205C479.616 521.663 479.848 523.017 480.312 524.267C480.777 525.517 481.491 526.526 482.457 527.293C483.423 528.06 484.654 528.443 486.151 528.443ZM498.303 512.307V509.182H516.03V512.307H508.871V531H505.518V512.307H498.303ZM528.935 531.455C526.832 531.455 525.019 530.991 523.494 530.062C521.979 529.125 520.81 527.818 519.986 526.142C519.171 524.456 518.764 522.496 518.764 520.261C518.764 518.027 519.171 516.057 519.986 514.352C520.81 512.638 521.955 511.303 523.423 510.347C524.901 509.381 526.624 508.898 528.594 508.898C529.73 508.898 530.852 509.087 531.96 509.466C533.068 509.845 534.077 510.46 534.986 511.312C535.895 512.155 536.619 513.273 537.159 514.665C537.699 516.057 537.969 517.771 537.969 519.807V521.227H521.151V518.33H534.56C534.56 517.098 534.313 516 533.821 515.034C533.338 514.068 532.647 513.306 531.747 512.747C530.857 512.188 529.806 511.909 528.594 511.909C527.259 511.909 526.103 512.241 525.128 512.903C524.162 513.557 523.419 514.409 522.898 515.46C522.377 516.511 522.116 517.638 522.116 518.841V520.773C522.116 522.42 522.401 523.817 522.969 524.963C523.546 526.099 524.347 526.966 525.369 527.562C526.392 528.15 527.58 528.443 528.935 528.443C529.815 528.443 530.611 528.32 531.321 528.074C532.041 527.818 532.661 527.439 533.182 526.938C533.703 526.426 534.105 525.792 534.389 525.034L537.628 525.943C537.287 527.042 536.714 528.008 535.909 528.841C535.104 529.665 534.11 530.309 532.926 530.773C531.742 531.227 530.412 531.455 528.935 531.455ZM91.4205 574.057L101.932 557.182H105.795V579H102.443V562.125L91.9886 579H88.0682V557.182H91.4205V574.057ZM120.856 585.25V575.875H122.674C123.119 575.411 123.503 574.909 123.825 574.369C124.147 573.83 124.426 573.19 124.663 572.452C124.909 571.704 125.117 570.795 125.288 569.724C125.458 568.645 125.61 567.343 125.742 565.818L126.481 557.182H140.344V575.875H143.697V585.25H140.344V579H124.208V585.25H120.856ZM126.481 575.875H136.992V560.307H129.606L129.038 565.818C128.801 568.1 128.507 570.094 128.157 571.798C127.807 573.503 127.248 574.862 126.481 575.875ZM157.01 579.455C155.04 579.455 153.312 578.986 151.825 578.048C150.348 577.111 149.193 575.799 148.359 574.114C147.536 572.428 147.124 570.458 147.124 568.205C147.124 565.932 147.536 563.948 148.359 562.253C149.193 560.558 150.348 559.241 151.825 558.304C153.312 557.366 155.04 556.898 157.01 556.898C158.98 556.898 160.703 557.366 162.18 558.304C163.667 559.241 164.822 560.558 165.646 562.253C166.48 563.948 166.896 565.932 166.896 568.205C166.896 570.458 166.48 572.428 165.646 574.114C164.822 575.799 163.667 577.111 162.18 578.048C160.703 578.986 158.98 579.455 157.01 579.455ZM157.01 576.443C158.506 576.443 159.737 576.06 160.703 575.293C161.669 574.526 162.384 573.517 162.848 572.267C163.312 571.017 163.544 569.663 163.544 568.205C163.544 566.746 163.312 565.387 162.848 564.128C162.384 562.868 161.669 561.85 160.703 561.074C159.737 560.297 158.506 559.909 157.01 559.909C155.514 559.909 154.283 560.297 153.317 561.074C152.351 561.85 151.636 562.868 151.172 564.128C150.708 565.387 150.476 566.746 150.476 568.205C150.476 569.663 150.708 571.017 151.172 572.267C151.636 573.517 152.351 574.526 153.317 575.293C154.283 576.06 155.514 576.443 157.01 576.443ZM180.877 579.455C178.832 579.455 177.07 578.972 175.593 578.006C174.116 577.04 172.979 575.709 172.184 574.014C171.388 572.319 170.991 570.383 170.991 568.205C170.991 565.989 171.398 564.033 172.212 562.338C173.036 560.634 174.182 559.303 175.65 558.347C177.127 557.381 178.851 556.898 180.82 556.898C182.354 556.898 183.737 557.182 184.968 557.75C186.199 558.318 187.208 559.114 187.994 560.136C188.78 561.159 189.267 562.352 189.457 563.716H186.104C185.849 562.722 185.281 561.841 184.4 561.074C183.529 560.297 182.354 559.909 180.877 559.909C179.57 559.909 178.424 560.25 177.44 560.932C176.464 561.604 175.702 562.556 175.153 563.787C174.613 565.009 174.343 566.443 174.343 568.091C174.343 569.777 174.608 571.244 175.138 572.494C175.678 573.744 176.436 574.715 177.411 575.406C178.396 576.098 179.551 576.443 180.877 576.443C181.748 576.443 182.539 576.292 183.249 575.989C183.96 575.686 184.561 575.25 185.053 574.682C185.546 574.114 185.896 573.432 186.104 572.636H189.457C189.267 573.924 188.799 575.084 188.05 576.116C187.312 577.139 186.332 577.954 185.11 578.56C183.898 579.156 182.487 579.455 180.877 579.455ZM192.638 560.307V557.182H210.366V560.307H203.207V579H199.854V560.307H192.638ZM218.608 574.057L229.119 557.182H232.983V579H229.631V562.125L219.176 579H215.256V557.182H218.608V574.057ZM237.759 579L246.623 567.92L237.873 557.182H241.85L249.123 566.5H250.941V557.182H254.293V566.5H256.055L263.327 557.182H267.305L258.612 567.92L267.418 579H263.384L255.998 569.625H254.293V579H250.941V569.625H249.237L241.793 579H237.759ZM280.458 579.455C278.356 579.455 276.542 578.991 275.018 578.062C273.503 577.125 272.333 575.818 271.509 574.142C270.695 572.456 270.288 570.496 270.288 568.261C270.288 566.027 270.695 564.057 271.509 562.352C272.333 560.638 273.479 559.303 274.947 558.347C276.424 557.381 278.147 556.898 280.117 556.898C281.254 556.898 282.376 557.087 283.484 557.466C284.592 557.845 285.6 558.46 286.509 559.312C287.418 560.155 288.143 561.273 288.683 562.665C289.222 564.057 289.492 565.771 289.492 567.807V569.227H272.674V566.33H286.083C286.083 565.098 285.837 564 285.344 563.034C284.862 562.068 284.17 561.306 283.271 560.747C282.38 560.188 281.329 559.909 280.117 559.909C278.782 559.909 277.627 560.241 276.651 560.903C275.685 561.557 274.942 562.409 274.421 563.46C273.9 564.511 273.64 565.638 273.64 566.841V568.773C273.64 570.42 273.924 571.817 274.492 572.963C275.07 574.099 275.87 574.966 276.893 575.562C277.915 576.15 279.104 576.443 280.458 576.443C281.339 576.443 282.134 576.32 282.844 576.074C283.564 575.818 284.184 575.439 284.705 574.938C285.226 574.426 285.629 573.792 285.913 573.034L289.151 573.943C288.81 575.042 288.237 576.008 287.433 576.841C286.628 577.665 285.633 578.309 284.45 578.773C283.266 579.227 281.935 579.455 280.458 579.455ZM309.194 566.557V569.682H297.148V566.557H309.194ZM297.944 557.182V579H294.592V557.182H297.944ZM311.751 557.182V579H308.398V557.182H311.751ZM321.225 574.057L331.737 557.182H335.6V579H332.248V562.125L321.793 579H317.873V557.182H321.225V574.057ZM354.865 579V560.25H349.07C347.763 560.25 346.735 560.553 345.987 561.159C345.239 561.765 344.865 562.598 344.865 563.659C344.865 564.701 345.201 565.52 345.874 566.116C346.555 566.713 347.488 567.011 348.672 567.011H355.717V570.136H348.672C347.195 570.136 345.921 569.876 344.851 569.355C343.781 568.834 342.957 568.091 342.379 567.125C341.802 566.15 341.513 564.994 341.513 563.659C341.513 562.314 341.816 561.159 342.422 560.193C343.028 559.227 343.894 558.484 345.021 557.963C346.158 557.442 347.507 557.182 349.07 557.182H358.047V579H354.865ZM340.32 579L346.513 568.148H350.149L343.956 579H340.32ZM366.701 557.182L371.928 566.102L377.156 557.182H381.019L373.974 568.091L381.019 579H377.156L371.928 570.534L366.701 579H362.837L369.769 568.091L362.837 557.182H366.701ZM88.0682 627V605.182H96.9886C99.3371 605.182 101.203 605.712 102.585 606.773C103.968 607.833 104.659 609.235 104.659 610.977C104.659 612.303 104.266 613.33 103.48 614.06C102.694 614.779 101.686 615.267 100.455 615.523C101.259 615.636 102.041 615.92 102.798 616.375C103.565 616.83 104.2 617.455 104.702 618.25C105.204 619.036 105.455 620.002 105.455 621.148C105.455 622.265 105.17 623.264 104.602 624.145C104.034 625.026 103.22 625.722 102.159 626.233C101.098 626.744 99.8295 627 98.3523 627H88.0682ZM91.25 623.932H98.3523C99.5076 623.932 100.412 623.657 101.065 623.108C101.719 622.559 102.045 621.811 102.045 620.864C102.045 619.737 101.719 618.851 101.065 618.207C100.412 617.554 99.5076 617.227 98.3523 617.227H91.25V623.932ZM91.25 614.33H96.9886C97.8883 614.33 98.66 614.206 99.304 613.96C99.9479 613.705 100.44 613.345 100.781 612.881C101.132 612.407 101.307 611.848 101.307 611.205C101.307 610.286 100.923 609.566 100.156 609.045C99.3892 608.515 98.3333 608.25 96.9886 608.25H91.25V614.33ZM130.643 627.455C128.597 627.455 126.836 626.972 125.359 626.006C123.881 625.04 122.745 623.709 121.95 622.014C121.154 620.319 120.756 618.383 120.756 616.205C120.756 613.989 121.164 612.033 121.978 610.338C122.802 608.634 123.948 607.303 125.415 606.347C126.893 605.381 128.616 604.898 130.586 604.898C132.12 604.898 133.503 605.182 134.734 605.75C135.965 606.318 136.973 607.114 137.759 608.136C138.545 609.159 139.033 610.352 139.222 611.716H135.87C135.614 610.722 135.046 609.841 134.165 609.074C133.294 608.297 132.12 607.909 130.643 607.909C129.336 607.909 128.19 608.25 127.205 608.932C126.23 609.604 125.468 610.556 124.918 611.787C124.379 613.009 124.109 614.443 124.109 616.091C124.109 617.777 124.374 619.244 124.904 620.494C125.444 621.744 126.201 622.715 127.177 623.406C128.162 624.098 129.317 624.443 130.643 624.443C131.514 624.443 132.305 624.292 133.015 623.989C133.725 623.686 134.326 623.25 134.819 622.682C135.311 622.114 135.662 621.432 135.87 620.636H139.222C139.033 621.924 138.564 623.084 137.816 624.116C137.077 625.139 136.097 625.954 134.876 626.56C133.664 627.156 132.253 627.455 130.643 627.455ZM152.987 627.455C151.017 627.455 149.289 626.986 147.802 626.048C146.325 625.111 145.169 623.799 144.336 622.114C143.512 620.428 143.1 618.458 143.1 616.205C143.1 613.932 143.512 611.948 144.336 610.253C145.169 608.558 146.325 607.241 147.802 606.304C149.289 605.366 151.017 604.898 152.987 604.898C154.956 604.898 156.68 605.366 158.157 606.304C159.644 607.241 160.799 608.558 161.623 610.253C162.456 611.948 162.873 613.932 162.873 616.205C162.873 618.458 162.456 620.428 161.623 622.114C160.799 623.799 159.644 625.111 158.157 626.048C156.68 626.986 154.956 627.455 152.987 627.455ZM152.987 624.443C154.483 624.443 155.714 624.06 156.68 623.293C157.646 622.526 158.361 621.517 158.825 620.267C159.289 619.017 159.521 617.663 159.521 616.205C159.521 614.746 159.289 613.387 158.825 612.128C158.361 610.868 157.646 609.85 156.68 609.074C155.714 608.297 154.483 607.909 152.987 607.909C151.49 607.909 150.259 608.297 149.293 609.074C148.327 609.85 147.612 610.868 147.148 612.128C146.684 613.387 146.452 614.746 146.452 616.205C146.452 617.663 146.684 619.017 147.148 620.267C147.612 621.517 148.327 622.526 149.293 623.293C150.259 624.06 151.49 624.443 152.987 624.443ZM185.149 605.182V623.875H188.217V634.045H184.865V627H167.99V605.182H171.342V623.875H181.797V605.182H185.149ZM196.733 622.057L207.244 605.182H211.108V627H207.756V610.125L197.301 627H193.381V605.182H196.733V622.057ZM223.668 627.511C222.286 627.511 221.031 627.251 219.904 626.73C218.777 626.2 217.882 625.438 217.219 624.443C216.557 623.439 216.225 622.227 216.225 620.807C216.225 619.557 216.471 618.544 216.964 617.767C217.456 616.981 218.114 616.366 218.938 615.92C219.762 615.475 220.671 615.144 221.665 614.926C222.669 614.699 223.678 614.519 224.691 614.386C226.017 614.216 227.092 614.088 227.915 614.003C228.749 613.908 229.355 613.752 229.734 613.534C230.122 613.316 230.316 612.937 230.316 612.398V612.284C230.316 610.883 229.933 609.794 229.165 609.017C228.408 608.241 227.257 607.852 225.714 607.852C224.113 607.852 222.859 608.203 221.95 608.903C221.04 609.604 220.401 610.352 220.032 611.148L216.85 610.011C217.418 608.686 218.176 607.653 219.123 606.915C220.079 606.167 221.121 605.646 222.248 605.352C223.384 605.049 224.502 604.898 225.6 604.898C226.301 604.898 227.106 604.983 228.015 605.153C228.933 605.314 229.819 605.651 230.671 606.162C231.533 606.673 232.248 607.445 232.816 608.477C233.384 609.509 233.668 610.892 233.668 612.625V627H230.316V624.045H230.146C229.918 624.519 229.54 625.026 229.009 625.565C228.479 626.105 227.773 626.564 226.893 626.943C226.012 627.322 224.937 627.511 223.668 627.511ZM224.18 624.5C225.505 624.5 226.623 624.24 227.532 623.719C228.451 623.198 229.142 622.526 229.606 621.702C230.079 620.878 230.316 620.011 230.316 619.102V616.034C230.174 616.205 229.862 616.361 229.379 616.503C228.905 616.635 228.356 616.754 227.731 616.858C227.115 616.953 226.514 617.038 225.927 617.114C225.349 617.18 224.88 617.237 224.521 617.284C223.649 617.398 222.835 617.582 222.077 617.838C221.329 618.084 220.723 618.458 220.259 618.96C219.805 619.453 219.577 620.125 219.577 620.977C219.577 622.142 220.008 623.023 220.87 623.619C221.741 624.206 222.844 624.5 224.18 624.5ZM237.855 627V623.875H238.651C239.304 623.875 239.848 623.747 240.284 623.491C240.72 623.226 241.07 622.767 241.335 622.114C241.61 621.451 241.818 620.532 241.96 619.358C242.112 618.174 242.221 616.669 242.287 614.841L242.685 605.182H257.23V627H253.878V608.307H245.866L245.526 616.091C245.45 617.881 245.289 619.457 245.043 620.821C244.806 622.175 244.441 623.312 243.949 624.23C243.466 625.149 242.822 625.84 242.017 626.304C241.212 626.768 240.204 627 238.991 627H237.855ZM266.278 613.08H272.528C275.085 613.08 277.041 613.728 278.395 615.026C279.749 616.323 280.426 617.966 280.426 619.955C280.426 621.261 280.123 622.45 279.517 623.52C278.911 624.58 278.021 625.428 276.847 626.062C275.672 626.688 274.233 627 272.528 627H263.381V605.182H266.733V623.875H272.528C273.854 623.875 274.943 623.525 275.795 622.824C276.648 622.123 277.074 621.223 277.074 620.125C277.074 618.97 276.648 618.027 275.795 617.298C274.943 616.569 273.854 616.205 272.528 616.205H266.278V613.08ZM300.131 614.557V617.682H288.086V614.557H300.131ZM288.881 605.182V627H285.529V605.182H288.881ZM302.688 605.182V627H299.336V605.182H302.688ZM311.708 613.08H317.958C320.515 613.08 322.47 613.728 323.825 615.026C325.179 616.323 325.856 617.966 325.856 619.955C325.856 621.261 325.553 622.45 324.947 623.52C324.341 624.58 323.451 625.428 322.276 626.062C321.102 626.688 319.663 627 317.958 627H308.81V605.182H312.163V623.875H317.958C319.284 623.875 320.373 623.525 321.225 622.824C322.077 622.123 322.504 621.223 322.504 620.125C322.504 618.97 322.077 618.027 321.225 617.298C320.373 616.569 319.284 616.205 317.958 616.205H311.708V613.08ZM329.322 627V605.182H332.674V627H329.322ZM341.31 605.182L346.538 614.102L351.765 605.182H355.629L348.583 616.091L355.629 627H351.765L346.538 618.534L341.31 627H337.447L344.379 616.091L337.447 605.182H341.31ZM380.526 627.455C378.48 627.455 376.719 626.972 375.241 626.006C373.764 625.04 372.628 623.709 371.832 622.014C371.037 620.319 370.639 618.383 370.639 616.205C370.639 613.989 371.046 612.033 371.861 610.338C372.685 608.634 373.83 607.303 375.298 606.347C376.776 605.381 378.499 604.898 380.469 604.898C382.003 604.898 383.385 605.182 384.616 605.75C385.848 606.318 386.856 607.114 387.642 608.136C388.428 609.159 388.916 610.352 389.105 611.716H385.753C385.497 610.722 384.929 609.841 384.048 609.074C383.177 608.297 382.003 607.909 380.526 607.909C379.219 607.909 378.073 608.25 377.088 608.932C376.113 609.604 375.35 610.556 374.801 611.787C374.261 613.009 373.991 614.443 373.991 616.091C373.991 617.777 374.257 619.244 374.787 620.494C375.327 621.744 376.084 622.715 377.06 623.406C378.045 624.098 379.2 624.443 380.526 624.443C381.397 624.443 382.188 624.292 382.898 623.989C383.608 623.686 384.209 623.25 384.702 622.682C385.194 622.114 385.545 621.432 385.753 620.636H389.105C388.916 621.924 388.447 623.084 387.699 624.116C386.96 625.139 385.98 625.954 384.759 626.56C383.546 627.156 382.135 627.455 380.526 627.455ZM403.153 627.455C401.051 627.455 399.238 626.991 397.713 626.062C396.198 625.125 395.028 623.818 394.205 622.142C393.39 620.456 392.983 618.496 392.983 616.261C392.983 614.027 393.39 612.057 394.205 610.352C395.028 608.638 396.174 607.303 397.642 606.347C399.119 605.381 400.843 604.898 402.812 604.898C403.949 604.898 405.071 605.087 406.179 605.466C407.287 605.845 408.295 606.46 409.205 607.312C410.114 608.155 410.838 609.273 411.378 610.665C411.918 612.057 412.188 613.771 412.188 615.807V617.227H395.369V614.33H408.778C408.778 613.098 408.532 612 408.04 611.034C407.557 610.068 406.866 609.306 405.966 608.747C405.076 608.188 404.025 607.909 402.812 607.909C401.477 607.909 400.322 608.241 399.347 608.903C398.381 609.557 397.637 610.409 397.116 611.46C396.596 612.511 396.335 613.638 396.335 614.841V616.773C396.335 618.42 396.619 619.817 397.188 620.963C397.765 622.099 398.565 622.966 399.588 623.562C400.611 624.15 401.799 624.443 403.153 624.443C404.034 624.443 404.83 624.32 405.54 624.074C406.259 623.818 406.88 623.439 407.401 622.938C407.921 622.426 408.324 621.792 408.608 621.034L411.847 621.943C411.506 623.042 410.933 624.008 410.128 624.841C409.323 625.665 408.329 626.309 407.145 626.773C405.961 627.227 404.631 627.455 403.153 627.455ZM415.256 608.307V605.182H432.983V608.307H425.824V627H422.472V608.307H415.256ZM450.998 627V608.25H445.202C443.896 608.25 442.868 608.553 442.12 609.159C441.372 609.765 440.998 610.598 440.998 611.659C440.998 612.701 441.334 613.52 442.006 614.116C442.688 614.713 443.621 615.011 444.805 615.011H451.85V618.136H444.805C443.327 618.136 442.054 617.876 440.984 617.355C439.914 616.834 439.09 616.091 438.512 615.125C437.934 614.15 437.646 612.994 437.646 611.659C437.646 610.314 437.949 609.159 438.555 608.193C439.161 607.227 440.027 606.484 441.154 605.963C442.29 605.442 443.64 605.182 445.202 605.182H454.18V627H450.998ZM436.452 627L442.646 616.148H446.282L440.089 627H436.452ZM462.834 605.182L468.061 614.102L473.288 605.182H477.152L470.107 616.091L477.152 627H473.288L468.061 618.534L462.834 627H458.97L465.902 616.091L458.97 605.182H462.834ZM486.367 597.909L486.083 618.818H482.788L482.504 597.909H486.367ZM484.435 627.227C483.735 627.227 483.133 626.976 482.631 626.474C482.129 625.973 481.879 625.371 481.879 624.67C481.879 623.97 482.129 623.368 482.631 622.866C483.133 622.365 483.735 622.114 484.435 622.114C485.136 622.114 485.737 622.365 486.239 622.866C486.741 623.368 486.992 623.97 486.992 624.67C486.992 625.134 486.874 625.561 486.637 625.949C486.41 626.337 486.102 626.65 485.714 626.886C485.335 627.114 484.909 627.227 484.435 627.227Z" fill="black"/>
<defs>
<clipPath id="clip0_3524_1654">
<rect width="269" height="149" fill="white" transform="matrix(-1 0 0 1 1244.92 454.238)"/>
</clipPath>
</defs>
</svg>
