<svg width="1874" height="730" viewBox="0 0 1874 730" fill="none" xmlns="http://www.w3.org/2000/svg">
<rect x="0.587891" y="0.00976562" width="1873" height="729" rx="29" fill="black"/>
<path d="M178.253 253.824V273.248H91.1777V253.824H178.253ZM98.5654 253.824V302.882H75.1572L73.8291 253.824H98.5654ZM196.183 253.824L194.024 302.965H171.197V253.824H196.183ZM164.557 152.389V171.896H106.368V152.389H164.557ZM182.32 152.389V273.248H157.501V152.389H182.32ZM103.297 152.389H128.199L124.962 201.612C124.464 209.747 123.578 216.941 122.306 223.194C121.088 229.392 119.594 234.843 117.823 239.547C116.108 244.251 114.199 248.373 112.096 251.915C109.993 255.401 107.779 258.445 105.455 261.046C103.131 263.591 100.779 265.86 98.3994 267.853C96.0199 269.789 93.6956 271.588 91.4268 273.248H77.1494V253.824H82.7109C84.3158 252.496 86.0036 250.67 87.7744 248.346C89.6006 246.021 91.3161 242.895 92.9209 238.966C94.5811 234.981 96.0199 229.946 97.2373 223.858C98.5101 217.771 99.4508 210.356 100.06 201.612L103.297 152.389ZM203.736 229.254V227.511C203.736 220.925 204.677 214.866 206.559 209.332C208.44 203.743 211.179 198.901 214.776 194.806C218.373 190.711 222.8 187.529 228.058 185.26C233.315 182.936 239.347 181.773 246.153 181.773C252.96 181.773 259.02 182.936 264.332 185.26C269.645 187.529 274.099 190.711 277.696 194.806C281.349 198.901 284.116 203.743 285.997 209.332C287.879 214.866 288.819 220.925 288.819 227.511V229.254C288.819 235.784 287.879 241.843 285.997 247.433C284.116 252.966 281.349 257.809 277.696 261.959C274.099 266.054 269.672 269.236 264.415 271.505C259.158 273.774 253.126 274.908 246.319 274.908C239.513 274.908 233.453 273.774 228.141 271.505C222.883 269.236 218.429 266.054 214.776 261.959C211.179 257.809 208.44 252.966 206.559 247.433C204.677 241.843 203.736 235.784 203.736 229.254ZM227.643 227.511V229.254C227.643 233.017 227.975 236.531 228.639 239.796C229.303 243.061 230.354 245.938 231.793 248.429C233.287 250.864 235.224 252.773 237.604 254.156C239.983 255.54 242.888 256.231 246.319 256.231C249.64 256.231 252.49 255.54 254.869 254.156C257.249 252.773 259.158 250.864 260.597 248.429C262.035 245.938 263.087 243.061 263.751 239.796C264.47 236.531 264.83 233.017 264.83 229.254V227.511C264.83 223.858 264.47 220.427 263.751 217.218C263.087 213.953 262.008 211.075 260.514 208.585C259.075 206.039 257.166 204.047 254.786 202.608C252.407 201.17 249.529 200.45 246.153 200.45C242.778 200.45 239.9 201.17 237.521 202.608C235.196 204.047 233.287 206.039 231.793 208.585C230.354 211.075 229.303 213.953 228.639 217.218C227.975 220.427 227.643 223.858 227.643 227.511ZM358.546 143.922H377.887C377.887 148.404 377.333 152.25 376.227 155.46C375.12 158.614 373.349 161.326 370.914 163.595C368.479 165.808 365.214 167.69 361.119 169.239C357.024 170.789 351.961 172.117 345.929 173.224C341.28 174.164 337.241 175.714 333.81 177.872C330.434 180.03 327.639 182.991 325.426 186.754C323.268 190.462 321.718 195.165 320.777 200.865C319.837 206.51 319.505 213.316 319.781 221.285V225.27L301.188 227.843V223.858C301.243 213.012 302.211 203.577 304.093 195.553C306.03 187.529 308.769 180.777 312.311 175.299C315.852 169.765 320.113 165.366 325.094 162.101C330.074 158.78 335.608 156.456 341.695 155.128C345.79 154.243 349.055 153.385 351.49 152.555C353.98 151.669 355.779 150.562 356.886 149.234C357.993 147.906 358.546 146.135 358.546 143.922ZM348.087 188.497C354.174 188.497 359.57 189.549 364.273 191.651C368.977 193.699 372.934 196.604 376.144 200.367C379.353 204.13 381.788 208.557 383.448 213.648C385.108 218.74 385.938 224.301 385.938 230.333V232.076C385.938 238.219 384.998 243.919 383.116 249.176C381.29 254.378 378.578 258.915 374.981 262.789C371.384 266.663 366.957 269.679 361.7 271.837C356.443 273.94 350.439 274.991 343.688 274.991C336.881 274.991 330.821 273.857 325.509 271.588C320.252 269.264 315.797 266.026 312.145 261.876C308.548 257.67 305.808 252.773 303.927 247.184C302.101 241.539 301.188 235.396 301.188 228.756V226.93C301.188 225.989 301.603 225.076 302.433 224.19C303.318 223.25 304.342 222.198 305.504 221.036C306.721 219.874 307.8 218.408 308.741 216.637C312.062 210.494 315.686 205.348 319.615 201.197C323.544 196.992 327.833 193.837 332.481 191.734C337.185 189.576 342.387 188.497 348.087 188.497ZM343.521 207.174C339.039 207.174 335.442 208.253 332.73 210.411C330.019 212.514 328.054 215.336 326.837 218.878C325.675 222.364 325.094 226.183 325.094 230.333V232.076C325.094 235.452 325.426 238.606 326.09 241.539C326.754 244.417 327.805 246.99 329.244 249.259C330.683 251.472 332.592 253.215 334.972 254.488C337.351 255.706 340.257 256.314 343.688 256.314C347.008 256.314 349.83 255.706 352.154 254.488C354.534 253.215 356.443 251.472 357.882 249.259C359.321 246.99 360.372 244.417 361.036 241.539C361.7 238.606 362.032 235.452 362.032 232.076V230.333C362.032 227.179 361.7 224.218 361.036 221.451C360.372 218.629 359.321 216.166 357.882 214.063C356.443 211.905 354.534 210.217 352.154 209C349.775 207.783 346.897 207.174 343.521 207.174ZM422.877 200.699V307.779H398.971V183.434H421.134L422.877 200.699ZM479.737 227.345V229.088C479.737 235.618 478.963 241.677 477.413 247.267C475.919 252.856 473.705 257.726 470.772 261.876C467.84 265.971 464.187 269.181 459.815 271.505C455.499 273.774 450.519 274.908 444.874 274.908C439.396 274.908 434.636 273.801 430.597 271.588C426.557 269.374 423.154 266.275 420.387 262.291C417.675 258.251 415.489 253.575 413.829 248.263C412.169 242.95 410.896 237.25 410.011 231.163V226.598C410.896 220.068 412.169 214.091 413.829 208.668C415.489 203.189 417.675 198.458 420.387 194.474C423.154 190.434 426.529 187.307 430.514 185.094C434.553 182.88 439.285 181.773 444.708 181.773C450.408 181.773 455.416 182.853 459.732 185.011C464.104 187.169 467.757 190.268 470.689 194.308C473.678 198.347 475.919 203.162 477.413 208.751C478.963 214.34 479.737 220.538 479.737 227.345ZM455.748 229.088V227.345C455.748 223.526 455.416 220.012 454.752 216.803C454.143 213.538 453.147 210.688 451.764 208.253C450.436 205.818 448.665 203.937 446.451 202.608C444.293 201.225 441.664 200.533 438.565 200.533C435.3 200.533 432.506 201.059 430.182 202.11C427.913 203.162 426.059 204.684 424.62 206.676C423.181 208.668 422.102 211.048 421.383 213.814C420.663 216.581 420.221 219.708 420.055 223.194V234.732C420.331 238.827 421.106 242.507 422.379 245.772C423.652 248.982 425.616 251.528 428.272 253.409C430.929 255.291 434.415 256.231 438.731 256.231C441.886 256.231 444.542 255.54 446.7 254.156C448.858 252.717 450.602 250.753 451.93 248.263C453.313 245.772 454.282 242.895 454.835 239.63C455.444 236.365 455.748 232.851 455.748 229.088ZM511.114 210.079H537.179C545.369 210.079 552.341 211.435 558.097 214.146C563.907 216.803 568.334 220.51 571.378 225.27C574.477 230.029 576.026 235.535 576.026 241.788C576.026 246.326 575.141 250.532 573.37 254.405C571.655 258.224 569.137 261.544 565.816 264.366C562.496 267.188 558.429 269.374 553.614 270.924C548.8 272.473 543.321 273.248 537.179 273.248H496.173V183.434H520.162V254.654H537.179C540.776 254.654 543.653 254.073 545.812 252.911C548.025 251.694 549.63 250.117 550.626 248.18C551.677 246.243 552.203 244.14 552.203 241.871C552.203 239.492 551.677 237.333 550.626 235.396C549.63 233.404 548.025 231.799 545.812 230.582C543.653 229.365 540.776 228.756 537.179 228.756H511.114V210.079ZM614.376 183.434V273.248H590.47V183.434H614.376ZM676.715 274.908C669.742 274.908 663.489 273.801 657.955 271.588C652.421 269.319 647.717 266.192 643.844 262.208C640.025 258.224 637.092 253.603 635.045 248.346C632.997 243.033 631.974 237.389 631.974 231.412V228.092C631.974 221.285 632.942 215.06 634.879 209.415C636.816 203.771 639.583 198.873 643.18 194.723C646.832 190.572 651.259 187.39 656.461 185.177C661.663 182.908 667.529 181.773 674.059 181.773C680.423 181.773 686.067 182.825 690.992 184.928C695.917 187.031 700.04 190.019 703.36 193.893C706.736 197.766 709.282 202.415 710.997 207.838C712.713 213.206 713.57 219.182 713.57 225.768V235.729H642.184V219.791H690.079V217.965C690.079 214.645 689.47 211.684 688.253 209.083C687.091 206.427 685.32 204.324 682.94 202.774C680.561 201.225 677.517 200.45 673.81 200.45C670.655 200.45 667.944 201.142 665.675 202.525C663.406 203.909 661.552 205.846 660.113 208.336C658.73 210.826 657.678 213.759 656.959 217.135C656.295 220.455 655.963 224.107 655.963 228.092V231.412C655.963 235.009 656.461 238.329 657.457 241.373C658.508 244.417 659.975 247.045 661.856 249.259C663.793 251.472 666.118 253.188 668.829 254.405C671.596 255.623 674.723 256.231 678.209 256.231C682.525 256.231 686.537 255.401 690.245 253.741C694.008 252.026 697.245 249.452 699.957 246.021L711.578 258.639C709.697 261.35 707.123 263.951 703.858 266.441C700.649 268.932 696.775 270.979 692.237 272.584C687.7 274.133 682.525 274.908 676.715 274.908ZM785.704 183.434H809.61L808.863 213.482C808.642 223.111 807.535 231.384 805.543 238.302C803.551 245.219 800.895 251.03 797.574 255.733C794.254 260.437 790.463 264.2 786.202 267.022C781.996 269.789 777.569 271.865 772.921 273.248H768.438L768.189 254.82L770.68 254.571C773.502 251.638 775.826 248.788 777.652 246.021C779.479 243.199 780.89 240.239 781.886 237.14C782.882 234.041 783.601 230.582 784.044 226.764C784.542 222.945 784.846 218.518 784.957 213.482L785.704 183.434ZM792.179 183.434H851.695V273.248H827.872V202.608H792.179V183.434ZM762.96 254.571H864.562V300.226H840.655V273.248H787.447V300.226H762.96V254.571ZM918.102 274.908C911.129 274.908 904.876 273.801 899.342 271.588C893.808 269.319 889.104 266.192 885.23 262.208C881.412 258.224 878.479 253.603 876.432 248.346C874.384 243.033 873.36 237.389 873.36 231.412V228.092C873.36 221.285 874.329 215.06 876.266 209.415C878.202 203.771 880.969 198.873 884.566 194.723C888.219 190.572 892.646 187.39 897.848 185.177C903.049 182.908 908.915 181.773 915.445 181.773C921.809 181.773 927.454 182.825 932.379 184.928C937.304 187.031 941.427 190.019 944.747 193.893C948.123 197.766 950.668 202.415 952.384 207.838C954.099 213.206 954.957 219.182 954.957 225.768V235.729H883.57V219.791H931.466V217.965C931.466 214.645 930.857 211.684 929.64 209.083C928.478 206.427 926.707 204.324 924.327 202.774C921.948 201.225 918.904 200.45 915.196 200.45C912.042 200.45 909.33 201.142 907.062 202.525C904.793 203.909 902.939 205.846 901.5 208.336C900.117 210.826 899.065 213.759 898.346 217.135C897.682 220.455 897.35 224.107 897.35 228.092V231.412C897.35 235.009 897.848 238.329 898.844 241.373C899.895 244.417 901.362 247.045 903.243 249.259C905.18 251.472 907.504 253.188 910.216 254.405C912.983 255.623 916.109 256.231 919.596 256.231C923.912 256.231 927.924 255.401 931.632 253.741C935.395 252.026 938.632 249.452 941.344 246.021L952.965 258.639C951.083 261.35 948.51 263.951 945.245 266.441C942.035 268.932 938.162 270.979 933.624 272.584C929.086 274.133 923.912 274.908 918.102 274.908ZM1029 183.434V202.193H984.84V183.434H1029ZM1046.51 183.434V273.248H1022.61V183.434H1046.51ZM978.863 183.434H1002.35L999.947 228.756C999.615 235.23 998.924 240.93 997.872 245.855C996.821 250.781 995.41 254.986 993.639 258.473C991.923 261.959 989.848 264.809 987.413 267.022C985.034 269.181 982.239 270.758 979.029 271.754C975.875 272.75 972.389 273.248 968.57 273.248H961.266L961.017 254.405L964.088 254.073C965.859 253.907 967.408 253.409 968.736 252.579C970.12 251.694 971.282 250.449 972.223 248.844C973.219 247.184 974.049 245.108 974.713 242.618C975.377 240.073 975.903 237.084 976.29 233.653C976.733 230.222 977.037 226.266 977.203 221.783L978.863 183.434ZM1113.5 252.994V212.984C1113.5 210.107 1113.03 207.644 1112.09 205.597C1111.15 203.494 1109.68 201.861 1107.69 200.699C1105.75 199.537 1103.24 198.956 1100.14 198.956C1097.48 198.956 1095.18 199.426 1093.25 200.367C1091.31 201.253 1089.82 202.553 1088.77 204.269C1087.71 205.929 1087.19 207.893 1087.19 210.162H1063.28C1063.28 206.344 1064.17 202.719 1065.94 199.288C1067.71 195.857 1070.28 192.841 1073.66 190.24C1077.03 187.584 1081.05 185.509 1085.69 184.015C1090.4 182.521 1095.66 181.773 1101.47 181.773C1108.44 181.773 1114.64 182.936 1120.06 185.26C1125.48 187.584 1129.74 191.07 1132.84 195.719C1136 200.367 1137.57 206.178 1137.57 213.15V251.583C1137.57 256.508 1137.88 260.548 1138.49 263.702C1139.1 266.801 1139.98 269.513 1141.14 271.837V273.248H1116.99C1115.83 270.813 1114.94 267.77 1114.33 264.117C1113.78 260.41 1113.5 256.702 1113.5 252.994ZM1116.66 218.546L1116.82 232.076H1103.46C1100.3 232.076 1097.56 232.436 1095.24 233.155C1092.92 233.875 1091.01 234.898 1089.51 236.227C1088.02 237.499 1086.91 238.993 1086.19 240.709C1085.53 242.424 1085.2 244.306 1085.2 246.354C1085.2 248.401 1085.67 250.255 1086.61 251.915C1087.55 253.52 1088.9 254.793 1090.67 255.733C1092.45 256.619 1094.52 257.062 1096.9 257.062C1100.5 257.062 1103.62 256.342 1106.28 254.903C1108.94 253.465 1110.98 251.694 1112.42 249.591C1113.92 247.488 1114.69 245.496 1114.75 243.614L1121.06 253.741C1120.17 256.01 1118.95 258.362 1117.4 260.797C1115.91 263.232 1114 265.528 1111.68 267.687C1109.35 269.789 1106.56 271.533 1103.29 272.916C1100.03 274.244 1096.15 274.908 1091.67 274.908C1085.97 274.908 1080.8 273.774 1076.15 271.505C1071.56 269.181 1067.9 265.999 1065.19 261.959C1062.54 257.864 1061.21 253.215 1061.21 248.014C1061.21 243.31 1062.09 239.132 1063.86 235.479C1065.63 231.827 1068.24 228.756 1071.67 226.266C1075.15 223.72 1079.5 221.811 1084.7 220.538C1089.9 219.21 1095.93 218.546 1102.79 218.546H1116.66Z" fill="white"/>
<path d="M96.7939 400.157V429.248H93.2711V403.282H78.612V429.248H75.0893V400.157H96.7939ZM103.445 437.43V407.43H106.684V410.896H107.081C107.328 410.517 107.669 410.034 108.104 409.447C108.549 408.85 109.184 408.32 110.008 407.856C110.841 407.383 111.968 407.146 113.388 407.146C115.225 407.146 116.845 407.605 118.246 408.524C119.648 409.442 120.742 410.744 121.528 412.43C122.314 414.115 122.706 416.104 122.706 418.396C122.706 420.706 122.314 422.709 121.528 424.404C120.742 426.09 119.653 427.397 118.26 428.325C116.868 429.243 115.263 429.703 113.445 429.703C112.044 429.703 110.921 429.471 110.079 429.007C109.236 428.533 108.587 427.998 108.133 427.401C107.678 426.795 107.328 426.294 107.081 425.896H106.797V437.43H103.445ZM106.741 418.339C106.741 419.987 106.982 421.44 107.465 422.7C107.948 423.95 108.653 424.93 109.581 425.64C110.51 426.341 111.646 426.691 112.991 426.691C114.392 426.691 115.562 426.322 116.499 425.583C117.446 424.835 118.156 423.831 118.63 422.572C119.113 421.303 119.354 419.892 119.354 418.339C119.354 416.805 119.117 415.422 118.644 414.191C118.18 412.951 117.474 411.971 116.528 411.251C115.59 410.522 114.411 410.157 112.991 410.157C111.627 410.157 110.481 410.503 109.553 411.194C108.625 411.876 107.924 412.832 107.451 414.063C106.977 415.285 106.741 416.71 106.741 418.339ZM136.684 429.703C134.714 429.703 132.986 429.234 131.499 428.296C130.022 427.359 128.867 426.047 128.033 424.362C127.209 422.676 126.797 420.706 126.797 418.453C126.797 416.18 127.209 414.196 128.033 412.501C128.867 410.806 130.022 409.49 131.499 408.552C132.986 407.615 134.714 407.146 136.684 407.146C138.653 407.146 140.377 407.615 141.854 408.552C143.341 409.49 144.496 410.806 145.32 412.501C146.153 414.196 146.57 416.18 146.57 418.453C146.57 420.706 146.153 422.676 145.32 424.362C144.496 426.047 143.341 427.359 141.854 428.296C140.377 429.234 138.653 429.703 136.684 429.703ZM136.684 426.691C138.18 426.691 139.411 426.308 140.377 425.541C141.343 424.774 142.058 423.765 142.522 422.515C142.986 421.265 143.218 419.911 143.218 418.453C143.218 416.994 142.986 415.635 142.522 414.376C142.058 413.116 141.343 412.098 140.377 411.322C139.411 410.545 138.18 410.157 136.684 410.157C135.188 410.157 133.956 410.545 132.991 411.322C132.025 412.098 131.31 413.116 130.846 414.376C130.382 415.635 130.15 416.994 130.15 418.453C130.15 419.911 130.382 421.265 130.846 422.515C131.31 423.765 132.025 424.774 132.991 425.541C133.956 426.308 135.188 426.691 136.684 426.691ZM160.551 429.703C158.506 429.703 156.744 429.22 155.267 428.254C153.79 427.288 152.653 425.957 151.858 424.262C151.062 422.567 150.665 420.631 150.665 418.453C150.665 416.237 151.072 414.281 151.886 412.586C152.71 410.882 153.856 409.551 155.324 408.595C156.801 407.629 158.524 407.146 160.494 407.146C162.028 407.146 163.411 407.43 164.642 407.998C165.873 408.566 166.881 409.362 167.667 410.384C168.453 411.407 168.941 412.6 169.131 413.964H165.778C165.523 412.97 164.954 412.089 164.074 411.322C163.202 410.545 162.028 410.157 160.551 410.157C159.244 410.157 158.098 410.498 157.113 411.18C156.138 411.852 155.376 412.804 154.827 414.035C154.287 415.257 154.017 416.691 154.017 418.339C154.017 420.025 154.282 421.492 154.812 422.742C155.352 423.992 156.11 424.963 157.085 425.654C158.07 426.346 159.225 426.691 160.551 426.691C161.422 426.691 162.213 426.54 162.923 426.237C163.633 425.934 164.235 425.498 164.727 424.93C165.22 424.362 165.57 423.68 165.778 422.884H169.131C168.941 424.172 168.472 425.332 167.724 426.365C166.986 427.387 166.006 428.202 164.784 428.808C163.572 429.404 162.161 429.703 160.551 429.703ZM172.312 410.555V407.43H190.04V410.555H182.881V429.248H179.528V410.555H172.312ZM202.66 429.703C200.691 429.703 198.962 429.234 197.476 428.296C195.998 427.359 194.843 426.047 194.01 424.362C193.186 422.676 192.774 420.706 192.774 418.453C192.774 416.18 193.186 414.196 194.01 412.501C194.843 410.806 195.998 409.49 197.476 408.552C198.962 407.615 200.691 407.146 202.66 407.146C204.63 407.146 206.354 407.615 207.831 408.552C209.318 409.49 210.473 410.806 211.297 412.501C212.13 414.196 212.547 416.18 212.547 418.453C212.547 420.706 212.13 422.676 211.297 424.362C210.473 426.047 209.318 427.359 207.831 428.296C206.354 429.234 204.63 429.703 202.66 429.703ZM202.66 426.691C204.157 426.691 205.388 426.308 206.354 425.541C207.319 424.774 208.034 423.765 208.498 422.515C208.962 421.265 209.194 419.911 209.194 418.453C209.194 416.994 208.962 415.635 208.498 414.376C208.034 413.116 207.319 412.098 206.354 411.322C205.388 410.545 204.157 410.157 202.66 410.157C201.164 410.157 199.933 410.545 198.967 411.322C198.001 412.098 197.286 413.116 196.822 414.376C196.358 415.635 196.126 416.994 196.126 418.453C196.126 419.911 196.358 421.265 196.822 422.515C197.286 423.765 198.001 424.774 198.967 425.541C199.933 426.308 201.164 426.691 202.66 426.691ZM226.584 435.498V426.123H228.403C228.848 425.659 229.231 425.157 229.553 424.617C229.875 424.078 230.154 423.438 230.391 422.7C230.637 421.952 230.846 421.043 231.016 419.972C231.187 418.893 231.338 417.591 231.471 416.066L232.209 407.43H246.073V426.123H249.425V435.498H246.073V429.248H229.937V435.498H226.584ZM232.209 426.123H242.721V410.555H235.334L234.766 416.066C234.529 418.348 234.236 420.342 233.885 422.046C233.535 423.751 232.976 425.11 232.209 426.123ZM263.023 429.703C260.92 429.703 259.107 429.239 257.582 428.311C256.067 427.373 254.898 426.066 254.074 424.39C253.259 422.704 252.852 420.744 252.852 418.509C252.852 416.275 253.259 414.305 254.074 412.6C254.898 410.886 256.043 409.551 257.511 408.595C258.988 407.629 260.712 407.146 262.682 407.146C263.818 407.146 264.94 407.335 266.048 407.714C267.156 408.093 268.165 408.708 269.074 409.561C269.983 410.403 270.707 411.521 271.247 412.913C271.787 414.305 272.057 416.019 272.057 418.055V419.475H255.238V416.578H268.648C268.648 415.347 268.401 414.248 267.909 413.282C267.426 412.316 266.735 411.554 265.835 410.995C264.945 410.436 263.894 410.157 262.682 410.157C261.346 410.157 260.191 410.489 259.216 411.151C258.25 411.805 257.506 412.657 256.986 413.708C256.465 414.759 256.204 415.886 256.204 417.089V419.021C256.204 420.669 256.488 422.065 257.057 423.211C257.634 424.347 258.434 425.214 259.457 425.811C260.48 426.398 261.668 426.691 263.023 426.691C263.903 426.691 264.699 426.568 265.409 426.322C266.129 426.066 266.749 425.687 267.27 425.186C267.791 424.674 268.193 424.04 268.477 423.282L271.716 424.191C271.375 425.29 270.802 426.256 269.997 427.089C269.192 427.913 268.198 428.557 267.014 429.021C265.83 429.475 264.5 429.703 263.023 429.703ZM275.224 429.248V426.123H276.02C276.673 426.123 277.218 425.995 277.653 425.74C278.089 425.474 278.439 425.015 278.704 424.362C278.979 423.699 279.187 422.78 279.329 421.606C279.481 420.422 279.59 418.917 279.656 417.089L280.054 407.43H294.599V429.248H291.247V410.555H283.236L282.895 418.339C282.819 420.129 282.658 421.705 282.412 423.069C282.175 424.423 281.81 425.56 281.318 426.478C280.835 427.397 280.191 428.088 279.386 428.552C278.581 429.016 277.573 429.248 276.361 429.248H275.224ZM307.17 429.759C305.788 429.759 304.533 429.499 303.406 428.978C302.279 428.448 301.384 427.686 300.721 426.691C300.059 425.687 299.727 424.475 299.727 423.055C299.727 421.805 299.973 420.792 300.466 420.015C300.958 419.229 301.616 418.614 302.44 418.169C303.264 417.723 304.173 417.392 305.167 417.174C306.171 416.947 307.18 416.767 308.193 416.634C309.519 416.464 310.594 416.336 311.417 416.251C312.251 416.156 312.857 416 313.236 415.782C313.624 415.564 313.818 415.186 313.818 414.646V414.532C313.818 413.131 313.434 412.042 312.667 411.265C311.91 410.489 310.759 410.1 309.216 410.1C307.615 410.1 306.361 410.451 305.452 411.151C304.542 411.852 303.903 412.6 303.534 413.396L300.352 412.259C300.92 410.934 301.678 409.901 302.625 409.163C303.581 408.415 304.623 407.894 305.75 407.6C306.886 407.297 308.004 407.146 309.102 407.146C309.803 407.146 310.608 407.231 311.517 407.401C312.435 407.562 313.321 407.899 314.173 408.41C315.035 408.921 315.75 409.693 316.318 410.725C316.886 411.758 317.17 413.14 317.17 414.873V429.248H313.818V426.294H313.648C313.42 426.767 313.041 427.274 312.511 427.813C311.981 428.353 311.275 428.812 310.395 429.191C309.514 429.57 308.439 429.759 307.17 429.759ZM307.682 426.748C309.007 426.748 310.125 426.488 311.034 425.967C311.952 425.446 312.644 424.774 313.108 423.95C313.581 423.126 313.818 422.259 313.818 421.35V418.282C313.676 418.453 313.363 418.609 312.881 418.751C312.407 418.883 311.858 419.002 311.233 419.106C310.617 419.201 310.016 419.286 309.429 419.362C308.851 419.428 308.382 419.485 308.023 419.532C307.151 419.646 306.337 419.83 305.579 420.086C304.831 420.332 304.225 420.706 303.761 421.208C303.307 421.701 303.079 422.373 303.079 423.225C303.079 424.39 303.51 425.271 304.372 425.867C305.243 426.454 306.346 426.748 307.682 426.748ZM326.641 424.305L337.153 407.43H341.016V429.248H337.664V412.373L327.209 429.248H323.289V407.43H326.641V424.305ZM334.937 400.157H338.062C338.062 401.691 337.531 402.946 336.471 403.921C335.41 404.897 333.971 405.384 332.153 405.384C330.363 405.384 328.938 404.897 327.877 403.921C326.826 402.946 326.3 401.691 326.3 400.157H329.425C329.425 400.896 329.629 401.544 330.036 402.103C330.453 402.662 331.158 402.941 332.153 402.941C333.147 402.941 333.857 402.662 334.283 402.103C334.719 401.544 334.937 400.896 334.937 400.157ZM356.077 435.498V426.123H357.895C358.34 425.659 358.723 425.157 359.045 424.617C359.367 424.078 359.647 423.438 359.883 422.7C360.13 421.952 360.338 421.043 360.508 419.972C360.679 418.893 360.83 417.591 360.963 416.066L361.702 407.43H375.565V426.123H378.917V435.498H375.565V429.248H359.429V435.498H356.077ZM361.702 426.123H372.213V410.555H364.827L364.258 416.066C364.022 418.348 363.728 420.342 363.378 422.046C363.027 423.751 362.469 425.11 361.702 426.123ZM392.231 429.703C390.261 429.703 388.533 429.234 387.046 428.296C385.569 427.359 384.413 426.047 383.58 424.362C382.756 422.676 382.344 420.706 382.344 418.453C382.344 416.18 382.756 414.196 383.58 412.501C384.413 410.806 385.569 409.49 387.046 408.552C388.533 407.615 390.261 407.146 392.231 407.146C394.2 407.146 395.924 407.615 397.401 408.552C398.888 409.49 400.043 410.806 400.867 412.501C401.7 414.196 402.117 416.18 402.117 418.453C402.117 420.706 401.7 422.676 400.867 424.362C400.043 426.047 398.888 427.359 397.401 428.296C395.924 429.234 394.2 429.703 392.231 429.703ZM392.231 426.691C393.727 426.691 394.958 426.308 395.924 425.541C396.89 424.774 397.605 423.765 398.069 422.515C398.533 421.265 398.765 419.911 398.765 418.453C398.765 416.994 398.533 415.635 398.069 414.376C397.605 413.116 396.89 412.098 395.924 411.322C394.958 410.545 393.727 410.157 392.231 410.157C390.734 410.157 389.503 410.545 388.537 411.322C387.572 412.098 386.857 413.116 386.393 414.376C385.929 415.635 385.697 416.994 385.697 418.453C385.697 419.911 385.929 421.265 386.393 422.515C386.857 423.765 387.572 424.774 388.537 425.541C389.503 426.308 390.734 426.691 392.231 426.691ZM423.427 399.248L425.132 401.293C424.469 401.937 423.702 402.387 422.831 402.643C421.96 402.899 420.975 403.055 419.876 403.112C418.778 403.169 417.556 403.225 416.211 403.282C414.696 403.339 413.442 403.708 412.447 404.39C411.453 405.072 410.686 406.057 410.146 407.345C409.606 408.633 409.261 410.214 409.109 412.089H409.393C410.132 410.725 411.155 409.722 412.461 409.078C413.768 408.434 415.17 408.112 416.666 408.112C418.371 408.112 419.905 408.509 421.268 409.305C422.632 410.1 423.711 411.279 424.507 412.842C425.302 414.404 425.7 416.331 425.7 418.623C425.7 420.905 425.293 422.875 424.479 424.532C423.674 426.189 422.542 427.468 421.084 428.367C419.635 429.258 417.935 429.703 415.984 429.703C414.033 429.703 412.324 429.243 410.856 428.325C409.389 427.397 408.247 426.024 407.433 424.205C406.619 422.378 406.211 420.119 406.211 417.43V415.1C406.211 410.242 407.035 406.559 408.683 404.049C410.34 401.54 412.831 400.242 416.155 400.157C417.329 400.119 418.375 400.11 419.294 400.129C420.212 400.148 421.013 400.105 421.694 400.001C422.376 399.897 422.954 399.646 423.427 399.248ZM415.984 426.691C417.3 426.691 418.432 426.36 419.379 425.697C420.336 425.034 421.069 424.101 421.581 422.899C422.092 421.686 422.348 420.261 422.348 418.623C422.348 417.032 422.087 415.678 421.567 414.561C421.055 413.443 420.321 412.591 419.365 412.004C418.408 411.417 417.263 411.123 415.927 411.123C414.952 411.123 414.076 411.289 413.3 411.62C412.523 411.952 411.86 412.439 411.311 413.083C410.762 413.727 410.336 414.513 410.032 415.441C409.739 416.369 409.583 417.43 409.564 418.623C409.564 421.066 410.137 423.022 411.282 424.49C412.428 425.957 413.996 426.691 415.984 426.691ZM430.828 437.43V407.43H434.067V410.896H434.464C434.711 410.517 435.051 410.034 435.487 409.447C435.932 408.85 436.567 408.32 437.39 407.856C438.224 407.383 439.351 407.146 440.771 407.146C442.608 407.146 444.228 407.605 445.629 408.524C447.031 409.442 448.124 410.744 448.91 412.43C449.696 414.115 450.089 416.104 450.089 418.396C450.089 420.706 449.696 422.709 448.91 424.404C448.124 426.09 447.035 427.397 445.643 428.325C444.251 429.243 442.646 429.703 440.828 429.703C439.426 429.703 438.304 429.471 437.461 429.007C436.619 428.533 435.97 427.998 435.515 427.401C435.061 426.795 434.711 426.294 434.464 425.896H434.18V437.43H430.828ZM434.123 418.339C434.123 419.987 434.365 421.44 434.848 422.7C435.331 423.95 436.036 424.93 436.964 425.64C437.892 426.341 439.029 426.691 440.373 426.691C441.775 426.691 442.944 426.322 443.882 425.583C444.829 424.835 445.539 423.831 446.013 422.572C446.496 421.303 446.737 419.892 446.737 418.339C446.737 416.805 446.5 415.422 446.027 414.191C445.563 412.951 444.857 411.971 443.91 411.251C442.973 410.522 441.794 410.157 440.373 410.157C439.01 410.157 437.864 410.503 436.936 411.194C436.008 411.876 435.307 412.832 434.834 414.063C434.36 415.285 434.123 416.71 434.123 418.339ZM458.101 415.328H464.351C466.907 415.328 468.863 415.976 470.217 417.274C471.571 418.571 472.248 420.214 472.248 422.203C472.248 423.509 471.945 424.698 471.339 425.768C470.733 426.829 469.843 427.676 468.669 428.311C467.495 428.936 466.055 429.248 464.351 429.248H455.203V407.43H458.555V426.123H464.351C465.676 426.123 466.765 425.773 467.618 425.072C468.47 424.371 468.896 423.472 468.896 422.373C468.896 421.218 468.47 420.276 467.618 419.546C466.765 418.817 465.676 418.453 464.351 418.453H458.101V415.328ZM475.714 429.248V407.43H479.067V429.248H475.714ZM494.351 429.703C492.248 429.703 490.435 429.239 488.91 428.311C487.395 427.373 486.226 426.066 485.402 424.39C484.587 422.704 484.18 420.744 484.18 418.509C484.18 416.275 484.587 414.305 485.402 412.6C486.226 410.886 487.372 409.551 488.839 408.595C490.317 407.629 492.04 407.146 494.01 407.146C495.146 407.146 496.268 407.335 497.376 407.714C498.484 408.093 499.493 408.708 500.402 409.561C501.311 410.403 502.035 411.521 502.575 412.913C503.115 414.305 503.385 416.019 503.385 418.055V419.475H486.567V416.578H499.976C499.976 415.347 499.729 414.248 499.237 413.282C498.754 412.316 498.063 411.554 497.163 410.995C496.273 410.436 495.222 410.157 494.01 410.157C492.675 410.157 491.519 410.489 490.544 411.151C489.578 411.805 488.835 412.657 488.314 413.708C487.793 414.759 487.532 415.886 487.532 417.089V419.021C487.532 420.669 487.817 422.065 488.385 423.211C488.962 424.347 489.763 425.214 490.785 425.811C491.808 426.398 492.997 426.691 494.351 426.691C495.231 426.691 496.027 426.568 496.737 426.322C497.457 426.066 498.077 425.687 498.598 425.186C499.119 424.674 499.521 424.04 499.805 423.282L503.044 424.191C502.703 425.29 502.13 426.256 501.325 427.089C500.52 427.913 499.526 428.557 498.342 429.021C497.158 429.475 495.828 429.703 494.351 429.703ZM517.405 435.498V426.123H519.223C519.668 425.659 520.051 425.157 520.373 424.617C520.695 424.078 520.975 423.438 521.211 422.7C521.458 421.952 521.666 421.043 521.836 419.972C522.007 418.893 522.158 417.591 522.291 416.066L523.03 407.43H536.893V426.123H540.246V435.498H536.893V429.248H520.757V435.498H517.405ZM523.03 426.123H533.541V410.555H526.155L525.586 416.066C525.35 418.348 525.056 420.342 524.706 422.046C524.355 423.751 523.797 425.11 523.03 426.123ZM553.843 429.703C551.741 429.703 549.927 429.239 548.403 428.311C546.887 427.373 545.718 426.066 544.894 424.39C544.08 422.704 543.672 420.744 543.672 418.509C543.672 416.275 544.08 414.305 544.894 412.6C545.718 410.886 546.864 409.551 548.331 408.595C549.809 407.629 551.532 407.146 553.502 407.146C554.638 407.146 555.76 407.335 556.868 407.714C557.976 408.093 558.985 408.708 559.894 409.561C560.803 410.403 561.528 411.521 562.067 412.913C562.607 414.305 562.877 416.019 562.877 418.055V419.475H546.059V416.578H559.468C559.468 415.347 559.222 414.248 558.729 413.282C558.246 412.316 557.555 411.554 556.655 410.995C555.765 410.436 554.714 410.157 553.502 410.157C552.167 410.157 551.011 410.489 550.036 411.151C549.07 411.805 548.327 412.657 547.806 413.708C547.285 414.759 547.025 415.886 547.025 417.089V419.021C547.025 420.669 547.309 422.065 547.877 423.211C548.455 424.347 549.255 425.214 550.278 425.811C551.3 426.398 552.489 426.691 553.843 426.691C554.724 426.691 555.519 426.568 556.229 426.322C556.949 426.066 557.569 425.687 558.09 425.186C558.611 424.674 559.013 424.04 559.297 423.282L562.536 424.191C562.195 425.29 561.622 426.256 560.817 427.089C560.012 427.913 559.018 428.557 557.834 429.021C556.651 429.475 555.32 429.703 553.843 429.703ZM566.045 429.248V426.123H566.84C567.493 426.123 568.038 425.995 568.474 425.74C568.909 425.474 569.26 425.015 569.525 424.362C569.799 423.699 570.008 422.78 570.15 421.606C570.301 420.422 570.41 418.917 570.476 417.089L570.874 407.43H585.42V429.248H582.067V410.555H574.056L573.715 418.339C573.639 420.129 573.478 421.705 573.232 423.069C572.995 424.423 572.631 425.56 572.138 426.478C571.655 427.397 571.011 428.088 570.206 428.552C569.402 429.016 568.393 429.248 567.181 429.248H566.045ZM597.991 429.759C596.608 429.759 595.353 429.499 594.226 428.978C593.099 428.448 592.205 427.686 591.542 426.691C590.879 425.687 590.547 424.475 590.547 423.055C590.547 421.805 590.794 420.792 591.286 420.015C591.778 419.229 592.437 418.614 593.26 418.169C594.084 417.723 594.993 417.392 595.988 417.174C596.992 416.947 598 416.767 599.013 416.634C600.339 416.464 601.414 416.336 602.238 416.251C603.071 416.156 603.677 416 604.056 415.782C604.444 415.564 604.638 415.186 604.638 414.646V414.532C604.638 413.131 604.255 412.042 603.488 411.265C602.73 410.489 601.58 410.1 600.036 410.1C598.436 410.1 597.181 410.451 596.272 411.151C595.363 411.852 594.724 412.6 594.354 413.396L591.172 412.259C591.741 410.934 592.498 409.901 593.445 409.163C594.402 408.415 595.443 407.894 596.57 407.6C597.706 407.297 598.824 407.146 599.922 407.146C600.623 407.146 601.428 407.231 602.337 407.401C603.256 407.562 604.141 407.899 604.993 408.41C605.855 408.921 606.57 409.693 607.138 410.725C607.706 411.758 607.991 413.14 607.991 414.873V429.248H604.638V426.294H604.468C604.241 426.767 603.862 427.274 603.331 427.813C602.801 428.353 602.096 428.812 601.215 429.191C600.334 429.57 599.26 429.759 597.991 429.759ZM598.502 426.748C599.828 426.748 600.945 426.488 601.854 425.967C602.773 425.446 603.464 424.774 603.928 423.95C604.402 423.126 604.638 422.259 604.638 421.35V418.282C604.496 418.453 604.184 418.609 603.701 418.751C603.227 418.883 602.678 419.002 602.053 419.106C601.438 419.201 600.836 419.286 600.249 419.362C599.671 419.428 599.203 419.485 598.843 419.532C597.972 419.646 597.157 419.83 596.4 420.086C595.652 420.332 595.046 420.706 594.581 421.208C594.127 421.701 593.9 422.373 593.9 423.225C593.9 424.39 594.331 425.271 595.192 425.867C596.064 426.454 597.167 426.748 598.502 426.748Z" fill="white"/>
<path d="M1365.89 270.212C1358.06 232.915 1335.18 184.985 1338.31 233.75C1338.31 233.75 1308.23 202.717 1297.67 240.65C1287.1 278.584 1307.12 289.955 1344.82 295.358C1382.52 300.762 1365.89 270.212 1365.89 270.212Z" fill="#757575"/>
<path d="M1512.41 335.541C1502.73 324.149 1488.21 310.633 1471.47 297.987C1429.74 266.446 1374.14 240.303 1344.98 266.045C1304.15 302.114 1397.74 379.106 1397.74 379.106L1512.41 335.541Z" fill="#E0E0E0"/>
<path d="M1643.65 616.918C1675.06 651.014 1682.49 681.876 1653.51 659.015C1653.51 659.015 1644.66 719.817 1619.61 701.975C1594.55 684.132 1592.7 643.31 1607.79 614.889C1622.88 586.468 1643.65 616.918 1643.65 616.918Z" fill="#757575"/>
<path d="M1493.21 326.772C1463.3 312.804 1402.8 337.453 1363.56 374.404C1350.67 386.552 1320.9 414.387 1320.9 414.387C1320.9 414.387 1283.67 404.427 1249.56 417.649C1249.56 417.649 1253.63 345.603 1218.52 352.351L1216.22 442.683C1216.22 442.683 1274.78 540.093 1375.44 537.521C1375.44 537.521 1376.01 644.879 1489.32 591.373C1489.32 591.373 1507.45 581.976 1507.47 556.685C1507.47 556.685 1547.05 557.205 1568.79 543.857C1568.79 543.857 1566.55 629.416 1615.19 630.444C1663.83 631.471 1660.06 613.956 1667.72 588.661C1675.37 563.367 1695.39 435.19 1617.22 379.953C1528.68 354.234 1493.21 326.772 1493.21 326.772Z" fill="white"/>
<path d="M1520.09 206.962C1544.91 180.504 1591.05 168.215 1639.24 206.726C1687.43 245.237 1691.43 284.899 1676.26 316.073C1661.08 347.248 1633.78 369.549 1594.53 367.37C1568.71 365.933 1420.21 313.401 1520.09 206.962Z" fill="white"/>
<path d="M1643.01 280.381C1603.73 230.955 1540.28 166.785 1494.76 219.412C1449.24 272.039 1518.88 325.65 1556.07 339.32C1593.27 352.991 1606.37 352.596 1606.37 352.596C1606.37 352.596 1647.43 313.063 1645.21 296.722C1643 280.382 1643.01 280.381 1643.01 280.381Z" fill="black"/>
<path d="M1649.65 273.248C1637.98 304.64 1595.2 354.113 1595.2 354.113L1623.2 356.557L1671.64 282.06L1649.65 273.248Z" fill="#808080"/>
<path d="M1623.21 356.542L1643.67 366.931L1687.42 302.776L1671.64 282.047L1623.21 356.542Z" fill="#9E9E9E"/>
<path d="M1652.79 301.164C1657.28 300.555 1660.43 296.421 1659.82 291.931C1659.21 287.441 1655.07 284.295 1650.59 284.904C1646.1 285.513 1642.95 289.647 1643.56 294.137C1644.17 298.627 1648.3 301.773 1652.79 301.164Z" fill="#9E9E9E"/>
<path d="M1635.9 332.231C1640.4 324.677 1641.11 316.799 1637.48 314.634C1633.85 312.469 1627.26 316.838 1622.76 324.391C1618.26 331.945 1617.55 339.824 1621.18 341.989C1624.81 344.153 1631.4 339.785 1635.9 332.231Z" fill="#9E9E9E"/>
<path d="M1588.34 246.916C1585.72 242.997 1565.64 212.901 1534.38 213.573C1520.35 213.876 1501.23 220.448 1499.82 231.199C1499.09 236.796 1503.1 243.948 1508.72 245.696C1519.35 249.018 1525.45 229.839 1541.14 229.284C1551.24 228.917 1561.65 237.495 1582.46 254.638C1589.13 260.138 1594.35 265.022 1595.73 263.926C1597.42 262.584 1592.43 253.027 1588.34 246.916Z" fill="#2B2B2B"/>
<path d="M1509.13 531.215C1514.46 570.56 1486.91 606.781 1447.57 612.119C1408.24 617.457 1360.16 575.526 1354.82 536.195C1349.48 496.863 1375.83 473.062 1415.17 467.724C1454.5 462.386 1503.79 491.871 1509.13 531.215Z" fill="#E0E0E0"/>
<path d="M1424.63 580.946C1400.98 566.43 1413.11 487.129 1434.18 505.443C1455.26 523.744 1453.56 598.698 1424.63 580.946Z" fill="#2B2B2B"/>
<path d="M1326.14 227.094C1315.37 216.421 1298.78 214.777 1294.34 246.735C1289.9 278.693 1310.55 287.902 1319.07 282.579C1327.59 277.256 1339.28 240.093 1326.14 227.094Z" fill="#8F8F8F"/>
<path d="M1467.25 334.964C1411.28 341.026 1380.36 382.333 1364.94 404.76C1364.94 404.76 1434.56 427.656 1468.13 460.523C1468.13 460.523 1542.19 399.381 1568.16 397.146C1568.14 397.148 1500.94 331.315 1467.25 334.964Z" fill="#C7C7C7"/>
<path d="M1473.89 315.807C1476.16 296.782 1489 294.753 1489 294.753C1489 294.753 1517.22 343.476 1611.06 366.793C1611.06 366.793 1617.05 366.58 1623.72 373.1C1633.36 391.324 1616.41 390.733 1609.51 390.964C1602.6 391.195 1524.61 360.144 1506.65 345.249C1488.7 330.379 1473.89 315.807 1473.89 315.807Z" fill="#969696"/>
<path d="M1471.1 339.532L1429.25 355.488L1443.05 360.89L1477.62 343.262L1471.1 339.532Z" fill="#757575"/>
<path d="M1483.16 346.665L1492.32 351.026L1458.86 368.449L1450.22 362.685L1483.16 346.665Z" fill="#757575"/>
<path d="M1521.3 372.449L1474.41 404.698L1501.86 421.305L1547.3 386.919L1521.3 372.449Z" fill="#757575"/>
<path d="M1374.76 398.866L1416.58 417.718L1420.49 412.476L1376.98 394.818L1374.76 398.866Z" fill="#757575"/>
<path d="M1384.05 389L1405.3 399.282L1408.79 390.502L1388.84 382.119L1384.05 389Z" fill="#757575"/>
<path d="M1447.48 393.557L1421.66 421.1L1466.92 448.688L1489.07 427.656L1447.48 393.557Z" fill="#757575"/>
<path d="M1501.12 353.009L1459.62 380.82L1467.74 386.247L1505.52 356.578L1501.12 353.009Z" fill="#757575"/>
<path d="M1418.04 357.008L1397.98 372.558L1434.4 393.486L1456.7 373.398L1418.04 357.008Z" fill="#757575"/>
<path fill-rule="evenodd" clip-rule="evenodd" d="M1282.42 408.951C1282.42 408.951 1282.42 408.951 1282.82 409.253C1283.22 409.555 1283.22 409.555 1283.22 409.555L1283.22 409.557L1283.22 409.563L1283.2 409.587C1283.18 409.609 1283.16 409.642 1283.12 409.686C1283.06 409.775 1282.96 409.907 1282.83 410.082C1282.58 410.432 1282.21 410.952 1281.75 411.63C1280.82 412.986 1279.52 414.972 1278.02 417.488C1275.01 422.52 1271.22 429.668 1268.07 438.13C1261.76 455.063 1258.03 477.183 1268.19 498.143L1267.29 498.579C1256.96 477.267 1260.78 454.833 1267.13 437.78C1270.31 429.249 1274.13 422.046 1277.16 416.975C1278.67 414.44 1279.98 412.436 1280.92 411.066C1281.39 410.38 1281.77 409.853 1282.02 409.496C1282.15 409.318 1282.25 409.182 1282.32 409.091C1282.35 409.045 1282.38 409.01 1282.4 408.987L1282.42 408.96L1282.42 408.951Z" fill="#757575"/>
<path fill-rule="evenodd" clip-rule="evenodd" d="M1391.09 544.284C1391.15 544.81 1391.2 545.189 1391.22 545.402C1392.45 562.114 1398.63 575.897 1406.67 585.195C1414.72 594.508 1424.58 599.261 1433.2 598.092C1437.52 597.505 1442.94 595.197 1448.68 591.795C1454.41 588.399 1460.42 583.938 1465.92 579.09C1471.42 574.242 1476.4 569.016 1480.08 564.096C1483.77 559.156 1486.11 554.594 1486.41 551.059C1487.03 543.781 1485.55 527.95 1477.69 514.109C1469.86 500.307 1455.68 488.474 1430.82 489.081C1418.38 489.385 1409.71 492.845 1403.68 497.874C1397.65 502.907 1394.23 509.549 1392.35 516.293C1389.04 528.217 1390.58 540.349 1391.09 544.284ZM1403.04 497.107C1409.27 491.906 1418.17 488.39 1430.8 488.082C1456.06 487.465 1470.57 499.532 1478.56 513.615C1486.54 527.66 1488.04 543.701 1487.41 551.145C1487.08 554.972 1484.6 559.726 1480.88 564.695C1477.15 569.683 1472.12 574.958 1466.58 579.84C1461.04 584.723 1454.98 589.223 1449.19 592.655C1443.41 596.081 1437.86 598.469 1433.33 599.083C1424.26 600.314 1414.09 595.306 1405.91 585.849C1397.72 576.379 1391.47 562.388 1390.22 545.476C1390.21 545.284 1390.16 544.93 1390.1 544.435C1389.6 540.591 1388.01 528.19 1391.39 516.025C1393.3 509.144 1396.81 502.304 1403.04 497.107Z" fill="#757575"/>
<path fill-rule="evenodd" clip-rule="evenodd" d="M1581.51 608.688C1581.51 608.688 1581.51 608.688 1581.76 608.255C1582.01 607.825 1582.01 607.823 1582.01 607.823L1582.01 607.824L1582.02 607.827L1582.04 607.839C1582.06 607.851 1582.09 607.868 1582.13 607.891C1582.21 607.936 1582.33 608.004 1582.49 608.09C1582.82 608.264 1583.3 608.515 1583.92 608.823C1585.18 609.438 1587.01 610.279 1589.34 611.174C1593.99 612.967 1600.6 614.978 1608.4 615.858C1623.99 617.616 1644.37 614.854 1663.56 596.743L1664.25 597.471C1644.8 615.822 1624.11 618.635 1608.29 616.852C1600.38 615.96 1593.69 613.923 1588.98 612.108C1586.62 611.2 1584.76 610.347 1583.48 609.721C1582.84 609.407 1582.35 609.15 1582.02 608.971C1581.85 608.881 1581.73 608.811 1581.64 608.763C1581.6 608.739 1581.56 608.72 1581.54 608.708L1581.52 608.693L1581.51 608.689L1581.51 608.688Z" fill="#757575"/>
<path fill-rule="evenodd" clip-rule="evenodd" d="M1568.76 565.696C1568.76 565.696 1568.76 565.695 1568.99 565.25C1569.21 564.808 1569.22 564.805 1569.22 564.805L1569.22 564.806L1569.22 564.809L1569.25 564.823C1569.27 564.835 1569.31 564.854 1569.36 564.878C1569.46 564.927 1569.61 564.999 1569.81 565.093C1570.2 565.279 1570.79 565.548 1571.56 565.876C1573.09 566.532 1575.35 567.426 1578.21 568.37C1583.94 570.26 1592.11 572.353 1601.87 573.163C1621.38 574.782 1647.24 571.275 1672.66 550.749L1673.29 551.527C1647.63 572.246 1621.5 575.795 1601.79 574.159C1591.93 573.341 1583.68 571.229 1577.9 569.32C1575 568.366 1572.72 567.462 1571.16 566.795C1570.39 566.462 1569.79 566.188 1569.38 565.997C1569.18 565.901 1569.02 565.827 1568.92 565.775C1568.87 565.75 1568.83 565.73 1568.8 565.716L1568.77 565.701L1568.76 565.697L1568.76 565.696Z" fill="#757575"/>
<path fill-rule="evenodd" clip-rule="evenodd" d="M1593.14 435.139C1608.57 416.483 1628.41 411.235 1645.59 407.96L1645.78 408.942C1628.65 412.208 1609.1 417.403 1593.91 435.776C1578.7 454.16 1567.78 485.827 1568.17 542.215L1567.17 542.222C1566.78 485.729 1577.72 453.783 1593.14 435.139Z" fill="#757575"/>
<path fill-rule="evenodd" clip-rule="evenodd" d="M1648.27 422.706C1649.84 421.986 1651.44 421.251 1653.07 420.498L1653.49 421.406C1651.87 422.152 1650.29 422.88 1648.73 423.593C1628.59 432.842 1613.97 439.555 1602.06 450.257C1589.36 461.669 1579.72 477.65 1569.87 506.191C1569.88 506.191 1569.88 506.19 1569.89 506.19C1570.4 506.145 1571.16 506.076 1572.14 505.98C1574.09 505.788 1576.92 505.486 1580.42 505.049C1587.42 504.175 1597.09 502.758 1607.8 500.589C1629.24 496.245 1654.75 488.902 1671.25 476.911L1671.84 477.72C1655.15 489.847 1629.46 497.222 1608 501.569C1597.26 503.744 1587.56 505.165 1580.54 506.041C1577.04 506.48 1574.2 506.782 1572.24 506.975C1571.26 507.072 1570.5 507.141 1569.98 507.186C1569.72 507.208 1569.52 507.225 1569.39 507.236L1569.24 507.248L1569.2 507.251L1569.19 507.252C1569.19 507.252 1569.19 507.252 1569.15 506.753L1569.19 507.252L1568.43 507.31L1568.68 506.591C1578.64 477.521 1588.41 461.184 1601.39 449.514C1613.42 438.705 1628.18 431.928 1648.27 422.706Z" fill="#757575"/>
<path fill-rule="evenodd" clip-rule="evenodd" d="M1569.79 377.639C1569.79 377.639 1569.79 377.638 1570.02 377.199C1570.26 376.759 1570.26 376.759 1570.26 376.759L1570.27 376.763L1570.29 376.775L1570.26 376.759C1570.34 376.801 1570.57 376.926 1570.71 377.008C1571.01 377.171 1571.44 377.413 1571.99 377.727C1573.09 378.356 1574.66 379.277 1576.56 380.443C1580.36 382.776 1585.46 386.095 1590.68 390.039C1595.89 393.982 1601.24 398.558 1605.52 403.408C1609.78 408.249 1613.03 413.407 1613.97 418.515L1612.98 418.696C1612.09 413.851 1608.99 408.858 1604.77 404.069C1600.55 399.289 1595.26 394.758 1590.07 390.837C1584.89 386.917 1579.81 383.617 1576.04 381.295C1574.15 380.135 1572.58 379.22 1571.49 378.595C1570.95 378.283 1570.52 378.043 1570.23 377.882C1570.08 377.801 1569.97 377.74 1569.9 377.699L1569.81 377.653L1569.79 377.642L1569.79 377.639Z" fill="#757575"/>
<path fill-rule="evenodd" clip-rule="evenodd" d="M1559.98 452.155C1551.78 442.27 1539.19 430.067 1521.62 420.785L1522.09 419.9C1539.8 429.259 1552.49 441.559 1560.75 451.517C1564.88 456.496 1567.91 460.892 1569.9 464.046C1570.9 465.623 1571.64 466.889 1572.13 467.763C1572.37 468.2 1572.56 468.538 1572.68 468.769C1572.74 468.884 1572.79 468.972 1572.82 469.032L1572.85 469.1L1572.86 469.117L1572.86 469.122L1572.86 469.123C1572.86 469.123 1572.87 469.124 1572.42 469.349L1571.97 469.574L1571.97 469.569L1571.96 469.554L1571.93 469.491C1571.9 469.435 1571.86 469.35 1571.8 469.238C1571.68 469.014 1571.5 468.682 1571.26 468.253C1570.77 467.393 1570.04 466.141 1569.06 464.58C1567.08 461.458 1564.08 457.097 1559.98 452.155Z" fill="#757575"/>
<path fill-rule="evenodd" clip-rule="evenodd" d="M1524.27 468.217C1540.5 485.994 1557.67 512.164 1561.33 545.685L1560.33 545.793C1556.71 512.557 1539.68 486.576 1523.53 468.892C1515.46 460.051 1507.62 453.291 1501.79 448.741C1498.88 446.467 1496.47 444.745 1494.79 443.594C1493.95 443.018 1493.3 442.584 1492.85 442.295C1492.63 442.151 1492.46 442.043 1492.34 441.971C1492.29 441.935 1492.24 441.908 1492.22 441.89L1492.18 441.87L1492.18 441.865L1492.17 441.864C1492.17 441.864 1492.17 441.864 1492.44 441.438C1492.7 441.012 1492.7 441.013 1492.7 441.013L1492.7 441.014L1492.71 441.02L1492.74 441.041C1492.77 441.06 1492.82 441.088 1492.88 441.125C1493 441.199 1493.17 441.309 1493.4 441.456C1493.85 441.75 1494.51 442.188 1495.36 442.769C1497.05 443.932 1499.48 445.665 1502.41 447.953C1508.27 452.529 1516.15 459.327 1524.27 468.217Z" fill="#757575"/>
<path fill-rule="evenodd" clip-rule="evenodd" d="M1401.66 344.33C1401.66 344.33 1401.66 344.33 1401.61 343.832C1401.56 343.335 1401.56 343.335 1401.56 343.335L1401.57 343.334L1401.57 343.334L1401.6 343.331C1401.63 343.329 1401.66 343.326 1401.71 343.322C1401.81 343.314 1401.95 343.304 1402.13 343.293C1402.5 343.271 1403.03 343.245 1403.69 343.232C1405.03 343.206 1406.91 343.23 1409.1 343.428C1413.48 343.824 1419.15 344.919 1424.21 347.732L1423.72 348.606C1418.83 345.887 1413.32 344.814 1409.01 344.424C1406.86 344.23 1405.02 344.207 1403.71 344.232C1403.06 344.245 1402.55 344.269 1402.19 344.291C1402.02 344.302 1401.88 344.312 1401.79 344.319C1401.75 344.322 1401.71 344.325 1401.69 344.327L1401.66 344.329L1401.66 344.33L1401.66 344.33Z" fill="#757575"/>
<path fill-rule="evenodd" clip-rule="evenodd" d="M1381.65 372.597C1376.29 372.278 1369.25 372.218 1362.51 373.247L1362.36 372.259C1369.2 371.215 1376.31 371.278 1381.71 371.599C1384.41 371.76 1386.68 371.986 1388.28 372.172C1389.08 372.265 1389.71 372.348 1390.15 372.407C1390.36 372.437 1390.53 372.461 1390.64 372.478C1390.7 372.486 1390.74 372.493 1390.77 372.497L1390.8 372.502L1390.81 372.504C1390.81 372.504 1390.81 372.504 1390.74 372.998L1390.66 373.492L1390.65 373.491L1390.62 373.486C1390.59 373.482 1390.55 373.475 1390.49 373.467C1390.38 373.451 1390.22 373.427 1390.01 373.398C1389.58 373.339 1388.96 373.257 1388.17 373.165C1386.58 372.981 1384.33 372.757 1381.65 372.597Z" fill="#757575"/>
<path fill-rule="evenodd" clip-rule="evenodd" d="M1327.81 405.74C1327.81 405.74 1327.81 405.74 1327.79 405.24C1327.78 404.74 1327.78 404.74 1327.78 404.74L1327.78 404.74L1327.79 404.74L1327.81 404.739C1327.84 404.739 1327.87 404.738 1327.92 404.737C1328.01 404.736 1328.15 404.734 1328.33 404.733C1328.69 404.731 1329.22 404.733 1329.92 404.748C1331.3 404.778 1333.33 404.86 1335.9 405.07C1341.03 405.49 1348.34 406.42 1357.03 408.458C1374.42 412.533 1397.36 421.045 1419.58 438.788C1441.74 456.474 1451.43 465.175 1455.6 469.462C1456.64 470.535 1457.34 471.339 1457.81 471.944C1458.27 472.541 1458.52 472.973 1458.63 473.299C1458.74 473.618 1458.76 474.016 1458.44 474.266C1458.31 474.365 1458.18 474.397 1458.1 474.407C1458.05 474.413 1458.02 474.414 1457.99 474.414C1457.97 474.413 1457.96 474.413 1457.95 474.412L1457.93 474.411L1457.93 474.41L1457.93 474.41C1457.93 474.41 1457.92 474.41 1457.98 473.913C1458.04 473.416 1458.03 473.416 1458.03 473.416L1458.03 473.416L1458.03 473.415L1458.02 473.414C1458.01 473.414 1458.01 473.414 1458 473.414C1457.99 473.414 1457.98 473.414 1457.97 473.416C1457.95 473.418 1457.89 473.429 1457.83 473.476C1457.69 473.579 1457.71 473.694 1457.71 473.694C1457.71 473.694 1457.71 473.673 1457.69 473.621C1457.63 473.454 1457.46 473.127 1457.02 472.555C1456.58 471.991 1455.91 471.217 1454.88 470.159C1450.77 465.922 1441.11 457.256 1418.96 439.569C1396.88 421.939 1374.08 413.481 1356.8 409.431C1348.17 407.406 1340.91 406.483 1335.81 406.067C1333.27 405.859 1331.26 405.777 1329.89 405.747C1329.21 405.733 1328.69 405.731 1328.34 405.733C1328.16 405.734 1328.03 405.735 1327.94 405.737C1327.89 405.738 1327.86 405.739 1327.84 405.739L1327.81 405.74L1327.81 405.74L1327.81 405.74Z" fill="#757575"/>
<path fill-rule="evenodd" clip-rule="evenodd" d="M1319.38 413.065L1319.76 412.737C1320.14 412.409 1320.14 412.409 1320.14 412.409L1320.14 412.412L1320.15 412.421L1320.17 412.453C1320.2 412.481 1320.23 412.523 1320.28 412.578C1320.37 412.688 1320.5 412.851 1320.68 413.066C1321.02 413.496 1321.52 414.136 1322.13 414.977C1323.35 416.659 1325.04 419.146 1326.89 422.379C1330.6 428.844 1334.98 438.291 1337.7 450.232C1342.27 470.352 1342.11 497.518 1326.03 529.353L1325.13 528.902C1341.1 497.289 1341.25 470.362 1336.72 450.454C1334.03 438.628 1329.69 429.273 1326.02 422.876C1324.19 419.678 1322.52 417.221 1321.32 415.565C1320.72 414.737 1320.23 414.11 1319.9 413.691C1319.73 413.481 1319.6 413.324 1319.51 413.219C1319.47 413.167 1319.43 413.128 1319.41 413.102L1319.39 413.074L1319.38 413.067L1319.38 413.065Z" fill="#757575"/>
<path fill-rule="evenodd" clip-rule="evenodd" d="M1325.14 408.13C1325.14 408.13 1325.14 408.13 1325.23 407.638C1325.31 407.145 1325.31 407.146 1325.31 407.146L1325.32 407.146L1325.32 407.147L1325.36 407.153C1325.38 407.158 1325.42 407.165 1325.47 407.175C1325.57 407.194 1325.72 407.224 1325.91 407.265C1326.3 407.346 1326.87 407.473 1327.59 407.655C1329.04 408.019 1331.12 408.602 1333.66 409.482C1338.74 411.243 1345.65 414.193 1352.98 418.952C1367.66 428.475 1384.03 445.24 1390.83 474.182L1389.86 474.411C1383.13 445.764 1366.94 429.2 1352.44 419.791C1345.19 415.084 1338.35 412.167 1333.34 410.427C1330.83 409.558 1328.77 408.982 1327.35 408.625C1326.64 408.446 1326.08 408.322 1325.71 408.243C1325.52 408.203 1325.38 408.175 1325.28 408.157C1325.23 408.147 1325.2 408.141 1325.17 408.136L1325.15 408.132L1325.14 408.131L1325.14 408.13Z" fill="#757575"/>
<path fill-rule="evenodd" clip-rule="evenodd" d="M1473.25 298.781C1473.25 298.781 1473.26 298.781 1473.14 299.268C1473.03 299.754 1473.03 299.754 1473.03 299.754L1473.02 299.754L1473.02 299.752L1472.98 299.744C1472.95 299.738 1472.91 299.727 1472.85 299.714C1472.73 299.688 1472.55 299.65 1472.31 299.604C1471.83 299.511 1471.13 299.383 1470.22 299.246C1468.4 298.972 1465.76 298.662 1462.48 298.517C1455.92 298.226 1446.82 298.599 1436.67 301.251C1416.38 306.548 1391.84 320.955 1374.92 357.486L1374.01 357.066C1391.06 320.25 1415.85 305.653 1436.41 300.283C1446.69 297.601 1455.89 297.224 1462.52 297.517C1465.84 297.664 1468.52 297.979 1470.37 298.257C1471.29 298.397 1472.01 298.527 1472.5 298.623C1472.75 298.67 1472.93 298.71 1473.06 298.737C1473.12 298.751 1473.17 298.762 1473.2 298.769L1473.24 298.778L1473.25 298.781Z" fill="#757575"/>
<path fill-rule="evenodd" clip-rule="evenodd" d="M1445.87 278.252C1445.87 278.252 1445.87 278.252 1445.77 278.74C1445.66 279.229 1445.66 279.229 1445.66 279.229L1445.66 279.228L1445.65 279.226L1445.61 279.217C1445.57 279.209 1445.51 279.198 1445.44 279.183C1445.29 279.152 1445.07 279.108 1444.77 279.054C1444.19 278.945 1443.33 278.795 1442.24 278.63C1440.04 278.299 1436.89 277.909 1433.08 277.671C1425.45 277.195 1415.18 277.331 1404.61 279.768C1394.03 282.204 1383.16 286.936 1374.31 295.64C1365.45 304.339 1358.57 317.038 1356.02 335.469L1355.03 335.332C1357.61 316.71 1364.58 303.799 1373.61 294.927C1382.63 286.06 1393.68 281.258 1404.38 278.793C1415.08 276.328 1425.45 276.194 1433.14 276.673C1436.99 276.913 1440.17 277.307 1442.38 277.641C1443.49 277.808 1444.36 277.96 1444.96 278.071C1445.25 278.126 1445.48 278.171 1445.64 278.203C1445.71 278.218 1445.77 278.23 1445.81 278.239L1445.86 278.248L1445.87 278.251L1445.87 278.252Z" fill="#757575"/>
<path fill-rule="evenodd" clip-rule="evenodd" d="M1407.2 261.265C1407.2 261.265 1407.21 261.265 1407.15 261.762C1407.09 262.258 1407.09 262.258 1407.09 262.258L1407.09 262.258L1407.08 262.257L1407.06 262.254C1407.03 262.252 1406.99 262.248 1406.94 262.242C1406.84 262.232 1406.68 262.218 1406.48 262.201C1406.07 262.166 1405.47 262.122 1404.7 262.083C1403.16 262.004 1400.93 261.944 1398.22 262.02C1392.8 262.173 1385.42 262.87 1377.62 265.048C1362 269.401 1344.69 279.651 1337.69 303.28L1336.73 302.996C1343.86 278.936 1361.52 268.498 1377.35 264.085C1385.26 261.879 1392.71 261.175 1398.2 261.021C1400.94 260.943 1403.18 261.004 1404.75 261.084C1405.53 261.124 1406.14 261.169 1406.56 261.204C1406.77 261.222 1406.93 261.237 1407.04 261.247C1407.09 261.253 1407.13 261.257 1407.16 261.26L1407.19 261.263L1407.2 261.264L1407.2 261.265Z" fill="#757575"/>
<path d="M1249.56 417.649C1250.21 386.775 1258.58 347.811 1216.81 348.974L1213.68 456.14L1231.73 463.545L1249.56 417.649Z" fill="#A4A4A4"/>
</svg>
