<svg width="947" height="716" viewBox="0 0 947 716" fill="none" xmlns="http://www.w3.org/2000/svg">
<path d="M110.048 381.369C287.442 166.881 399.585 110.909 579.701 101.802C833.82 88.9532 927.213 234.257 944.085 265.047C946.141 268.8 947 272.929 947 277.208V686C947 702.569 933.569 716 917 716H29.1486C15.9715 716 4.48286 707.372 2.6395 694.325C-4.19855 645.924 -6.4032 522.171 110.048 381.369Z" fill="#D4F6ED"/>
<path d="M559.536 411.117L291 469.574V716L609 629.911L604.967 401L559.536 411.117Z" fill="#67B5A2"/>
<path d="M137 401L291 469.574V716L137 617.751V401Z" fill="#67B5A2"/>
<path d="M137 401.017L417.59 347L605 401.017L289.952 470L137 401.017Z" fill="#1E2B30"/>
<path d="M816 229.186C816 229.186 844.438 277.08 871.358 258.868C898.278 240.657 860.283 198 860.283 198" stroke="#FFB800" stroke-miterlimit="10"/>
<path d="M137.93 401L65 309.998L371.875 265L412 356.476L137.93 401Z" fill="#67B5A2"/>
<path d="M137.773 401L17 431.338L198.646 517L291 470.045L137.773 401Z" fill="#8BDAC7"/>
<path d="M291 470.331L359.529 583L653 491.004L581.615 409L291 470.331Z" fill="#8BDAC7"/>
<path d="M203 430.549L251.107 407.743L379.492 440.432L445.218 397L529 418.726L290.028 470L256.195 454.676L203 430.549Z" fill="#C64444"/>
<path d="M249 450.927L377.356 413L450 435.924L291.101 470L249 450.927Z" fill="#E9A800"/>
<path d="M616.558 550.757C585.384 572.286 504.243 592.745 423.319 563.405C342.395 534.065 461.285 531.705 498.915 522.844C516.977 518.582 606.358 478.636 576.017 412.839L412.585 361.117C412.585 361.117 332.869 417.696 355.427 456.214L322.57 463.371C322.57 463.371 202.828 371.029 329.918 308.9C340.791 303.587 345.643 299.702 337.404 295.994C183.003 226.391 302.349 88.8303 298.547 69.6008C294.764 50.3712 272.245 51.3822 255.312 51.1245C238.379 50.8668 260.877 42.6 260.877 42.6C292.229 30.7848 329.304 43.2741 315.817 119.875C302.329 196.476 413.575 226.847 423.695 211.325C432.271 198.142 389.314 89.8414 536.961 14.9451C684.608 -59.9511 775.613 167.751 713.939 231.585C669.853 277.221 648.503 287.153 668.427 316.275C679.617 332.63 706.849 320.616 730.457 316.374C777.316 307.929 777.989 326.841 819.461 328.526C857.051 330.053 861.943 276.824 859.824 249.566C856.794 210.334 914.189 291.316 901.039 353.069C887.888 414.821 787.931 408.815 760.798 412.462C732.477 416.269 753.055 448.186 781.198 455.58C847.842 473.065 893.632 600.417 759.452 632.135C625.272 663.854 775.652 613.223 729.784 563.305C703.859 534.996 665.773 516.758 616.558 550.757Z" fill="#A866E7"/>
<path d="M484.178 207.571C484.939 202.525 495.428 185.435 503.594 214.608C511.781 243.8 481.416 225.725 484.178 207.571Z" fill="#473561"/>
<path d="M452.274 149.787C461.262 127.549 478.684 133.109 475.65 160.017C472.597 186.925 461.93 185.308 457.865 184.782C453.801 184.257 446.187 164.849 452.274 149.787Z" fill="white"/>
<path d="M551.521 198.159C554.656 190.742 568.137 171.784 581.01 181.912C593.883 192.04 583.028 207.938 576.131 217.078C569.234 226.218 556.948 228.038 551.521 223.894C546.093 219.75 547.621 207.376 551.521 198.159Z" fill="white"/>
<path d="M457.135 169.63C461.622 160.549 470.336 162.819 468.827 173.812C467.297 184.786 461.964 184.128 459.932 183.909C457.899 183.69 454.096 175.784 457.135 169.63Z" fill="black"/>
<path d="M551.612 207.73C552.955 204.412 558.621 195.86 563.702 200.205C568.803 204.55 564.228 211.72 561.347 215.847C558.465 219.975 553.481 220.923 551.32 219.146C549.159 217.368 549.937 211.858 551.612 207.73Z" fill="black"/>
<path d="M654.187 50.5733C654.984 45.5259 665.975 28.4318 674.533 57.6121C683.091 86.7924 651.292 68.7322 654.187 50.5733Z" fill="#473561"/>
<path d="M686.439 82.9656C684.289 82.6519 675.631 74.4593 685.972 64.9383C696.294 55.4172 694.2 84.128 686.439 82.9656Z" fill="#473561"/>
<path d="M678.364 98.5233C676.305 99.8385 662.718 99.4275 664.098 83.953C665.478 68.4785 685.815 93.7761 678.364 98.5233Z" fill="#473561"/>
<path d="M825.192 136C825.192 136 906.996 178.015 882.382 196.283C805.959 253 805.959 253 805.959 253L760 216.384L825.192 136Z" fill="#E9A800"/>
<path d="M269.5 109C286.897 109 301 95.1208 301 78C301 60.8792 286.897 47 269.5 47C252.103 47 238 60.8792 238 78C238 95.1208 252.103 109 269.5 109Z" fill="#C64444"/>
<path d="M306.478 78.2576C303.901 44.297 276.354 42.3762 248.689 48.9307C247.698 50.2575 248.847 51.2872 254.693 51.3862C271.638 51.6436 294.151 50.6337 297.956 69.8417C301.741 89.0498 182.338 226.457 336.839 295.982C224.848 177.209 309.847 122.852 306.478 78.2576Z" fill="#CE83FC"/>
<path d="M866.685 240C874.242 270.617 891.933 323.375 867.28 354.29C838.244 390.69 734.276 389.264 747.088 422C747.663 416.95 751.749 413.029 760.595 411.841C787.767 408.197 887.868 414.197 901.037 352.507C910.934 306.146 880.906 248.912 866.685 240Z" fill="#CE83FC"/>
<path d="M291.5 715.5L609 629.5L574 502.499L638.5 395.999C638.5 395.999 1086.5 356.5 684 555.5C674.5 612.5 829.81 659.12 741.5 691C677.586 714.072 755.053 659.178 674.5 663C523.7 670.153 291.5 715.5 291.5 715.5Z" fill="#B9E8E2"/>
<path d="M594.852 414.532C594.852 414.532 594.852 414.512 594.833 414.512C576.943 376.071 472.768 349.956 433.925 344.19C432.996 343.516 421.966 342.981 421.531 343.001C303.044 342.704 325.638 421.268 343.133 458.718L355.408 456.043C332.893 417.543 412.457 360.992 412.457 360.992L575.579 412.689C602.423 476.749 516.395 518.439 498.624 522.64C475.022 528.208 419.415 531.2 401.368 539.938C422.341 551.252 459.662 554.264 516.435 535.46C575.243 515.982 625.176 441.36 594.852 414.532Z" fill="#CE83FC"/>
<path d="M774.187 568.485C762.147 502.435 701.966 517.938 653 533.876V533.896C684.76 526.808 710.372 542.152 729.385 563.001C760.811 597.452 699.354 632.239 702.241 640C737.615 629.764 781.533 608.777 774.187 568.485Z" fill="#CE83FC"/>
<path d="M559.536 411.117L291 469.574V716L609 629.911L604.967 401L559.536 411.117Z" fill="#469280"/>
<path d="M137 401L291 469.574V716L209 664L137 523V401Z" fill="#58A492"/>
<path d="M137 401.017L417.59 347L607.5 403L292.452 471.983L137 401.017Z" fill="#1E2B30"/>
<path d="M816 229.186C816 229.186 844.438 277.08 871.358 258.868C898.278 240.657 860.283 198 860.283 198" stroke="#FFB800" stroke-width="4" stroke-miterlimit="10"/>
<path d="M137.93 401L65 309.998L371.875 265L412 356.476L137.93 401Z" fill="#67B5A2"/>
<path d="M137.773 401L17 431.338L198.646 517L291 470.045L137.773 401Z" fill="#8BDAC7"/>
<path d="M291 470.331L359.529 583L653 491.004L581.615 409L291 470.331Z" fill="#8BDAC7"/>
<path d="M204.281 430.87L252.388 408.063L380.773 440.752L446.5 397.32L533.253 419.046L294.281 470.32L257.476 454.996L204.281 430.87Z" fill="#C64444"/>
<path d="M248 451L377.356 413L454 436.5L291 471L248 451Z" fill="#E9A800"/>
<path d="M616.558 550.757C585.384 572.286 504.243 592.745 423.319 563.405C342.395 534.065 461.285 531.706 498.915 522.844C516.977 518.582 606.358 478.636 576.017 412.839L412.585 361.117C412.585 361.117 317.666 382.898 355.427 457.343L322.57 464.5C322.57 464.5 202.828 371.029 329.918 308.9C340.791 303.587 345.643 299.702 337.404 295.994C183.003 226.391 302.349 88.8303 298.547 69.6008C294.764 50.3712 272.245 51.3822 255.312 51.1245C238.379 50.8668 260.877 42.6 260.877 42.6C292.229 30.7848 329.304 43.2741 315.817 119.875C302.329 196.476 413.575 226.847 423.695 211.325C432.271 198.142 389.314 89.8414 536.961 14.9451C684.608 -59.9511 775.613 167.751 713.94 231.585C669.853 277.221 648.503 287.153 668.427 316.275C679.617 332.63 706.849 320.616 730.457 316.374C777.316 307.929 777.989 326.841 819.461 328.526C857.051 330.053 861.943 276.824 859.824 249.566C856.794 210.334 914.189 291.316 901.039 353.069C887.888 414.821 787.931 408.815 760.798 412.462C732.477 416.269 753.055 448.186 781.198 455.58C847.842 473.065 893.631 600.417 759.452 632.135C625.272 663.854 775.652 613.223 729.784 563.305C703.859 534.996 665.773 516.758 616.558 550.757Z" fill="#A866E7"/>
<path d="M484.178 207.571C484.939 202.525 495.428 185.435 503.594 214.608C511.781 243.8 481.416 225.725 484.178 207.571Z" fill="#473561"/>
<path d="M452.274 149.787C461.262 127.549 478.684 133.109 475.65 160.017C472.597 186.925 461.93 185.308 457.865 184.782C453.801 184.257 446.187 164.849 452.274 149.787Z" fill="white"/>
<path d="M551.521 198.159C554.656 190.742 568.137 171.784 581.01 181.912C593.883 192.04 583.028 207.938 576.131 217.078C569.234 226.218 556.948 228.038 551.521 223.894C546.093 219.75 547.621 207.376 551.521 198.159Z" fill="white"/>
<path d="M457.135 169.63C461.622 160.549 470.336 162.819 468.827 173.812C467.297 184.786 461.964 184.128 459.932 183.909C457.899 183.69 454.096 175.784 457.135 169.63Z" fill="black"/>
<path d="M551.612 207.73C552.955 204.412 558.621 195.86 563.702 200.205C568.803 204.55 564.228 211.72 561.347 215.847C558.465 219.975 553.481 220.923 551.32 219.146C549.159 217.368 549.937 211.858 551.612 207.73Z" fill="black"/>
<path d="M654.187 50.5733C654.984 45.5259 665.975 28.4318 674.533 57.6121C683.091 86.7924 651.292 68.7322 654.187 50.5733Z" fill="#473561"/>
<path d="M686.439 82.9656C684.289 82.6519 675.631 74.4593 685.972 64.9383C696.294 55.4172 694.2 84.128 686.439 82.9656Z" fill="#473561"/>
<path d="M678.364 98.5233C676.305 99.8385 662.718 99.4275 664.098 83.953C665.478 68.4785 685.815 93.7761 678.364 98.5233Z" fill="#473561"/>
<path d="M825.192 136C825.192 136 906.996 178.015 882.382 196.283C805.959 253 805.959 253 805.959 253L760 216.384L825.192 136Z" fill="#E9A800"/>
<path d="M269.5 109C286.897 109 301 95.1208 301 78C301 60.8792 286.897 47 269.5 47C252.103 47 238 60.8792 238 78C238 95.1208 252.103 109 269.5 109Z" fill="#C64444"/>
<path d="M306.478 78.2576C303.901 44.297 276.354 42.3762 248.689 48.9307C247.698 50.2575 248.847 51.2872 254.693 51.3862C271.638 51.6436 294.151 50.6337 297.956 69.8417C301.741 89.0498 182.338 226.457 336.839 295.982C224.848 177.209 309.847 122.852 306.478 78.2576Z" fill="#CE83FC"/>
<path d="M866.685 240C874.242 270.617 891.933 323.375 867.28 354.29C838.244 390.69 734.276 389.264 747.088 422C747.663 416.95 751.749 413.029 760.595 411.841C787.767 408.197 887.868 414.197 901.037 352.507C910.934 306.146 880.906 248.912 866.685 240Z" fill="#CE83FC"/>
<path d="M594.853 414.532C594.853 414.532 594.853 414.512 594.834 414.512C576.944 376.071 472.769 349.956 433.926 344.19C432.997 343.516 421.966 342.981 421.532 343.001C303.045 342.704 326.507 422.05 344.001 459.5L356.276 456.825C321.595 388.186 412.458 360.992 412.458 360.992L575.58 412.689C602.424 476.749 516.396 518.439 498.625 522.64C475.022 528.208 419.416 531.2 401.369 539.938C422.342 551.252 459.663 554.264 516.435 535.46C575.244 515.982 625.177 441.36 594.853 414.532Z" fill="#CE83FC"/>
<path d="M774.187 568.485C762.147 502.435 701.966 517.938 653 533.876V533.896C684.76 526.808 710.372 542.152 729.385 563.001C760.811 597.452 699.354 632.239 702.241 640C737.615 629.764 781.533 608.777 774.187 568.485Z" fill="#CE83FC"/>
<path d="M784 235L867.001 163.5C867.001 163.5 892.001 179.5 886.001 193C884.579 196.198 806 253 806 253L784 235Z" fill="#DA8C18"/>
</svg>
